<svg xmlns="http://www.w3.org/2000/svg" version="1.1" xmlns:xlink="http://www.w3.org/1999/xlink" xmlns:svgjs="http://svgjs.com/svgjs" width="500" height="500"><svg version="1.1" xmlns="http://www.w3.org/2000/svg" xmlns:xlink="http://www.w3.org/1999/xlink" x="0px" y="0px" viewBox="0 0 500 500" style="enable-background:new 0 0 500 500;" xml:space="preserve">
<g id="SvgjsG1008">
	<g>
		<rect x="416.779" y="398.494" style="fill:#EBEBEB;" width="33.122" height="0.25"></rect>
		<rect x="322.527" y="401.208" style="fill:#EBEBEB;" width="8.693" height="0.25"></rect>
		<rect x="396.586" y="389.208" style="fill:#EBEBEB;" width="19.192" height="0.25"></rect>
		<rect x="52.459" y="390.888" style="fill:#EBEBEB;" width="43.193" height="0.25"></rect>
		<rect x="104.556" y="390.888" style="fill:#EBEBEB;" width="6.333" height="0.25"></rect>
		<rect x="131.471" y="395.111" style="fill:#EBEBEB;" width="93.676" height="0.25"></rect>
		<path style="fill:#EBEBEB;" d="M237.014,337.8H43.915c-3.147,0-5.708-2.561-5.708-5.708V60.66c0-3.147,2.561-5.708,5.708-5.708
			h193.099c3.146,0,5.707,2.561,5.707,5.708v271.432C242.721,335.239,240.16,337.8,237.014,337.8z M43.915,55.203
			c-3.01,0-5.458,2.448-5.458,5.458v271.432c0,3.01,2.448,5.458,5.458,5.458h193.099c3.009,0,5.457-2.448,5.457-5.458V60.66
			c0-3.009-2.448-5.458-5.457-5.458H43.915z"></path>
		<path style="fill:#EBEBEB;" d="M453.31,337.8H260.212c-3.147,0-5.707-2.561-5.707-5.708V60.66c0-3.147,2.561-5.708,5.707-5.708
			H453.31c3.148,0,5.708,2.561,5.708,5.708v271.432C459.019,335.239,456.458,337.8,453.31,337.8z M260.212,55.203
			c-3.009,0-5.457,2.448-5.457,5.458v271.432c0,3.01,2.448,5.458,5.457,5.458H453.31c3.01,0,5.458-2.448,5.458-5.458V60.66
			c0-3.009-2.448-5.458-5.458-5.458H260.212z"></path>
		<rect y="382.398" style="fill:#EBEBEB;" width="500" height="0.25"></rect>
	</g>
	<g>
		<g>
			<polygon style="fill:#E6E6E6;" points="243.48,382.799 346.809,203.817 450.137,382.799 			"></polygon>
			<path style="fill:#F5F5F5;" d="M349.214,204.675c-1.659-2.253-5.058-2.135-6.557,0.228
				c-7.879,12.418-27.783,44.521-24.498,46.865c4.08,2.911,13.397-7.253,18.013-6.237s2.262,12.929,10.172,12.69
				c7.911-0.239,7.631-12.436,11.329-12.69c3.697-0.254,12.134,9.148,17.572,4.828C379.618,246.884,357.888,216.454,349.214,204.675
				z"></path>
		</g>
		<g>
			<polygon style="fill:#E0E0E0;" points="52.587,382.799 140.947,229.745 229.308,382.799 			"></polygon>
			<path style="fill:#F5F5F5;" d="M142.759,229.013c-1.249-1.697-3.808-1.608-4.937,0.171c-5.932,9.35-20.919,33.522-18.445,35.287
				c3.072,2.192,10.087-5.461,13.563-4.696c3.476,0.765,1.703,9.735,7.659,9.555s5.746-9.364,8.53-9.555
				c2.784-0.191,9.137,6.888,13.231,3.635C165.652,260.795,149.29,237.882,142.759,229.013z"></path>
		</g>
		<g>
			<path style="fill:#EFEFEF;" d="M70.698,173.287c0.01,1.566-1.251,2.843-2.817,2.854c-1.566,0.01-2.843-1.251-2.854-2.817
				c-0.01-1.566,1.251-2.843,2.817-2.854c0.003,0,0.006,0,0.009,0C69.416,170.465,70.688,171.724,70.698,173.287z"></path>
			<path style="fill:#EFEFEF;" d="M91.646,156.569c0.01,1.566-1.251,2.843-2.817,2.854c-1.566,0.01-2.843-1.251-2.853-2.817
				c-0.01-1.566,1.251-2.843,2.817-2.854c0.003,0,0.006,0,0.009,0C90.364,153.747,91.635,155.007,91.646,156.569z"></path>
			<path style="fill:#EFEFEF;" d="M60.651,124.271c-0.005,1.566-1.279,2.831-2.845,2.826c-1.566-0.005-2.831-1.279-2.826-2.845
				c0.005-1.566,1.279-2.831,2.845-2.826c0.009,0,0.018,0,0.027,0C59.409,121.442,60.661,122.714,60.651,124.271z"></path>
			<path style="fill:#EFEFEF;" d="M111.676,109.241c0.005,1.561-1.256,2.83-2.817,2.835c-1.561,0.005-2.83-1.256-2.835-2.817
				c-0.005-1.561,1.256-2.83,2.817-2.835C110.401,106.419,111.671,107.68,111.676,109.241L111.676,109.241z"></path>
			<path style="fill:#EFEFEF;" d="M62.596,247.021c1.561,0,2.826,1.265,2.826,2.826c0,1.561-1.265,2.826-2.826,2.826
				c-1.561,0-2.826-1.265-2.826-2.826C59.77,248.287,61.035,247.021,62.596,247.021z"></path>
			<path style="fill:#EFEFEF;" d="M206.56,138.08c0.005,1.566,1.279,2.831,2.844,2.826c1.566-0.005,2.831-1.279,2.826-2.844
				c-0.005-1.566-1.279-2.831-2.844-2.826c-1.561,0-2.826,1.265-2.826,2.826C206.56,138.068,206.56,138.074,206.56,138.08z"></path>
			<path style="fill:#EFEFEF;" d="M175.134,121.518c0,1.566,1.269,2.835,2.835,2.835c1.566,0,2.835-1.27,2.835-2.835
				c0-1.566-1.27-2.835-2.835-2.835c-0.006,0-0.012,0-0.018,0C176.392,118.693,175.134,119.96,175.134,121.518z"></path>
			<path style="fill:#EFEFEF;" d="M187.796,202.694c0,1.566,1.27,2.835,2.835,2.835c1.566,0,2.835-1.27,2.835-2.835
				c0-1.566-1.269-2.835-2.835-2.835c-0.006,0-0.012,0-0.018,0C189.052,199.864,187.791,201.133,187.796,202.694L187.796,202.694z"></path>
			<path style="fill:#EFEFEF;" d="M205.927,89.009c0.01,1.561,1.284,2.818,2.844,2.808c1.561-0.01,2.818-1.284,2.808-2.844
				c-0.01-1.557-1.278-2.813-2.835-2.808c-1.561,0.005-2.822,1.274-2.817,2.835C205.927,89.003,205.927,89.006,205.927,89.009z"></path>
			<path style="fill:#EFEFEF;" d="M160.357,199.877c0.005,1.566,1.279,2.831,2.844,2.826c1.566-0.005,2.831-1.279,2.826-2.844
				c-0.005-1.566-1.279-2.831-2.844-2.826c-1.561,0-2.826,1.265-2.826,2.826C160.357,199.865,160.357,199.871,160.357,199.877z"></path>
			<path style="fill:#EFEFEF;" d="M128.931,183.316c0,1.566,1.27,2.835,2.835,2.835c1.566,0,2.835-1.269,2.835-2.835
				c0-1.566-1.269-2.835-2.835-2.835c-0.006,0-0.012,0-0.018,0C130.189,180.49,128.931,181.757,128.931,183.316z"></path>
			<path style="fill:#EFEFEF;" d="M159.724,150.807c0.01,1.561,1.284,2.818,2.844,2.808c1.561-0.01,2.818-1.284,2.808-2.844
				c-0.01-1.557-1.278-2.813-2.835-2.808c-1.561,0.005-2.822,1.274-2.817,2.835C159.724,150.8,159.724,150.803,159.724,150.807z"></path>
			<path style="fill:#EFEFEF;" d="M154.801,74.319c0,1.566,1.269,2.835,2.835,2.835c1.566,0,2.835-1.269,2.835-2.835
				c0-1.566-1.27-2.835-2.835-2.835c-0.006,0-0.012,0-0.018,0C156.059,71.494,154.801,72.76,154.801,74.319z"></path>
			<path style="fill:#EFEFEF;" d="M411.9,172.507c1.561,0,2.826,1.265,2.826,2.826c0,1.561-1.265,2.826-2.826,2.826
				s-2.826-1.265-2.826-2.826C409.074,173.772,410.339,172.507,411.9,172.507z"></path>
			<path style="fill:#EFEFEF;" d="M362.389,137.594c0,1.566,1.269,2.835,2.835,2.835c1.566,0,2.835-1.269,2.835-2.835
				c0-1.566-1.269-2.835-2.835-2.835c-0.003,0-0.006,0-0.009,0c-1.561,0-2.826,1.265-2.826,2.826
				C362.389,137.588,362.389,137.591,362.389,137.594z"></path>
			<path style="fill:#EFEFEF;" d="M384.401,221.532c0.005,1.566,1.279,2.831,2.844,2.826c1.566-0.005,2.831-1.279,2.826-2.844
				c-0.005-1.566-1.279-2.831-2.844-2.826c-1.561,0-2.826,1.265-2.826,2.826C384.401,221.519,384.401,221.526,384.401,221.532z"></path>
			<path style="fill:#EFEFEF;" d="M418.791,126.234c0,1.566,1.269,2.835,2.835,2.835c1.566,0,2.835-1.269,2.835-2.835
				c0-1.566-1.269-2.835-2.835-2.835c-0.003,0-0.006,0-0.009,0C420.055,123.404,418.791,124.672,418.791,126.234z"></path>
			<path style="fill:#EFEFEF;" d="M319.285,134.768c0.005,1.561,1.275,2.822,2.835,2.817c1.561-0.005,2.822-1.274,2.817-2.835
				c-0.005-1.561-1.274-2.822-2.835-2.817C320.541,131.938,319.28,133.207,319.285,134.768L319.285,134.768z"></path>
			<path style="fill:#EFEFEF;" d="M232.188,181.71c0.005,1.561-1.256,2.83-2.817,2.835c-1.561,0.005-2.83-1.256-2.835-2.817
				c-0.005-1.561,1.256-2.83,2.817-2.835c1.556-0.01,2.825,1.243,2.835,2.799C232.188,181.697,232.188,181.704,232.188,181.71z"></path>
			<path style="fill:#EFEFEF;" d="M293.544,83.073c-0.01,1.561-1.284,2.818-2.844,2.808c-1.561-0.01-2.818-1.284-2.808-2.844
				c0.01-1.55,1.267-2.803,2.817-2.808c1.556-0.01,2.825,1.243,2.835,2.798C293.545,83.042,293.545,83.057,293.544,83.073z"></path>
			<path style="fill:#EFEFEF;" d="M262.971,111.884c0,1.561-1.265,2.826-2.826,2.826c-1.561,0-2.826-1.265-2.826-2.826
				c0-1.557,1.26-2.821,2.817-2.826c1.561-0.005,2.83,1.256,2.835,2.817C262.971,111.878,262.971,111.881,262.971,111.884z"></path>
			<path style="fill:#EFEFEF;" d="M376.4,98.341c1.561,0,2.826,1.265,2.826,2.826s-1.265,2.826-2.826,2.826
				c-1.561,0-2.826-1.265-2.826-2.826S374.839,98.341,376.4,98.341z"></path>
			<path style="fill:#EFEFEF;" d="M322.111,184.635c0,1.566,1.269,2.835,2.835,2.835c1.566,0,2.835-1.269,2.835-2.835
				c0-1.566-1.269-2.835-2.835-2.835c-0.003,0-0.006,0-0.009,0c-1.561,0-2.826,1.265-2.826,2.826
				C322.111,184.628,322.111,184.631,322.111,184.635z"></path>
			<path style="fill:#EFEFEF;" d="M284.106,165.265c0.005,1.561,1.274,2.822,2.835,2.817c1.561-0.005,2.822-1.275,2.817-2.835
				c-0.005-1.561-1.274-2.822-2.835-2.817C285.362,162.435,284.101,163.704,284.106,165.265L284.106,165.265z"></path>
			<path style="fill:#EFEFEF;" d="M361.739,167.633c1.561,0,2.826,1.265,2.826,2.826c0,1.561-1.265,2.826-2.826,2.826
				c-1.561,0-2.826-1.265-2.826-2.826C358.913,168.898,360.178,167.633,361.739,167.633z"></path>
		</g>
	</g>
</g>
<g id="SvgjsG1007" style="display:none;">
	<g style="display:inline;">
		<path style="fill:#407BFF;" d="M330.291,368.317c30.063-12.21,119.622-45.18,105.86-118.658
			c-14.342-76.573-72.304-85.751-146.051-71.938c-68.87,12.899-65.629-66.065-158.784-48.617
			c-78.873,14.772-111.907,144.076,2.989,222.723C204.063,399.576,296.312,382.117,330.291,368.317z"></path>
		<path style="opacity:0.9;fill:#FFFFFF;" d="M330.291,368.317c30.063-12.21,119.622-45.18,105.86-118.658
			c-14.342-76.573-72.304-85.751-146.051-71.938c-68.87,12.899-65.629-66.065-158.784-48.617
			c-78.873,14.772-111.907,144.076,2.989,222.723C204.063,399.576,296.312,382.117,330.291,368.317z"></path>
	</g>
</g>
<g id="SvgjsG1006">
	<ellipse id="SvgjsEllipse1005" style="fill:#F5F5F5;" cx="245.178" cy="412.391" rx="193.889" ry="11.323"></ellipse>
</g>
<g id="SvgjsG1004">
	<path style="fill:#FFFFFF;" d="M180.911,257.782"></path>
	<path style="fill:#FFFFFF;" d="M175.765,255.092"></path>
	<g>
		<g>
			<g>
				<g>
					<polygon style="fill:#407BFF;" points="113.43,382.477 247.487,150.269 381.544,382.477 					"></polygon>
					<polygon style="opacity:0.7;fill:#FFFFFF;" points="113.43,382.477 247.487,150.269 381.544,382.477 					"></polygon>
					<path style="fill:#407BFF;" d="M233.536,276.341v24.45c0,0-29.26-1.92-42.54-5.73c-3.82-1.1-6.32-2.35-6.42-3.76
						c-0.44-6.32,34.36-7.81,34.36-7.81l4.49-2.2L233.536,276.341z"></path>
					<path style="opacity:0.5;fill:#FFFFFF;" d="M233.536,276.341v24.45c0,0-29.26-1.92-42.54-5.73c-3.82-1.1-6.32-2.35-6.42-3.76
						c-0.44-6.32,34.36-7.81,34.36-7.81l4.49-2.2L233.536,276.341z"></path>
					<path style="fill:#407BFF;" d="M308.206,335.011c-8.93,42.14-132.67,47.43-132.67,47.43v-91.76c0,0,4.73,5.05,32.52,5.42
						c2.84,0.04,6.1,0.31,9.67,0.78c31.34,4.09,86.56,23,90.48,26.47C312.576,327.221,308.206,335.011,308.206,335.011z"></path>
					<path style="opacity:0.5;fill:#FFFFFF;" d="M308.206,335.011c-8.93,42.14-132.67,47.43-132.67,47.43v-91.76
						c0,0,4.73,5.05,32.52,5.42c2.84,0.04,6.1,0.31,9.67,0.78c31.34,4.09,86.56,23,90.48,26.47
						C312.576,327.221,308.206,335.011,308.206,335.011z"></path>
					<g>
						<path style="fill:#FFFFFF;" d="M158.255,382.477h91.639c60.254,0,91.248-21.154,79.979-50.132
							c-11.435-29.409-139.333-38.333-139.333-42.333s43-5.333,43-13.667c0-7.217-40.888-11.178-51.847-12.11l1.654-2.865
							l-4.144,1.674c-0.809,0.327-1.322,0.94-1.549,1.635c-0.436,1.335,0.186,2.969,1.795,3.444l0,0
							c10.103,0.438,43.091,2.345,43.091,8.556c0,7.333-47,4-47,14s132.667,15.333,132.667,44.333
							C308.207,358.849,197.624,376.831,158.255,382.477z"></path>
					</g>
					<path style="fill:#407BFF;" d="M222.536,276.681c0,7.33-47,4-47,14v89.19c-3.84,1.34-10.1,2.14-17.22,2.61h-0.06
						c-19.32,1.26-44.83,0-44.83,0l43.641-75.592c7.285-12.619,13.768-25.685,19.408-39.121l1.061-2.527h0.01
						c-0.14,1.19,0.51,2.47,1.9,2.88c5.05,0.22,15.83,0.81,25.34,2.12C214.296,271.551,222.536,273.571,222.536,276.681z"></path>
					<path style="opacity:0.6;fill:#FFFFFF;" d="M222.536,276.681c0,7.33-47,4-47,14v89.19c-3.84,1.34-10.1,2.14-17.22,2.61h-0.06
						c-19.32,1.26-44.83,0-44.83,0l43.641-75.592c7.285-12.619,13.768-25.685,19.408-39.121l1.061-2.527h0.01
						c-0.14,1.19,0.51,2.47,1.9,2.88c5.05,0.22,15.83,0.81,25.34,2.12C214.296,271.551,222.536,273.571,222.536,276.681z"></path>
				</g>
				<g>
					<path style="fill:#407BFF;" d="M250.356,150.623c-1.659-2.253-5.058-2.135-6.557,0.228
						c-7.879,12.418-27.783,44.521-24.498,46.865c4.08,2.911,13.397-7.253,18.013-6.237c4.616,1.016,2.261,12.929,10.172,12.69
						c7.911-0.239,7.631-12.436,11.329-12.69s12.134,9.148,17.572,4.828C280.76,192.832,259.03,162.402,250.356,150.623z"></path>
					<path style="opacity:0.9;fill:#FFFFFF;" d="M250.356,150.623c-1.659-2.253-5.058-2.135-6.557,0.228
						c-7.879,12.418-27.783,44.521-24.498,46.865c4.08,2.911,13.397-7.253,18.013-6.237c4.616,1.016,2.261,12.929,10.172,12.69
						c7.911-0.239,7.631-12.436,11.329-12.69s12.134,9.148,17.572,4.828C280.76,192.832,259.03,162.402,250.356,150.623z"></path>
				</g>
			</g>
		</g>
		<path style="fill:#407BFF;" d="M351.122,382.481h-97.896c0,0,0.04-0.01,0.11-0.03c0.01,0,0.01,0,0.01,0
			c57.98-0.79,87.58-21.69,76.53-50.11C329.536,331.471,351.122,382.481,351.122,382.481z"></path>
		<path style="opacity:0.4;fill:#FFFFFF;" d="M351.122,382.481h-97.896c0,0,0.04-0.01,0.11-0.03c0.01,0,0.01,0,0.01,0
			c57.98-0.79,87.58-21.69,76.53-50.11C329.536,331.471,351.122,382.481,351.122,382.481z"></path>
	</g>
	<g>
		<polygon style="fill:#407BFF;" points="221.802,380.436 209.551,383.033 214.516,355.489 219.559,355.489 		"></polygon>
		<polygon style="opacity:0.3;" points="221.802,380.436 209.551,383.033 214.516,355.489 219.559,355.489 		"></polygon>
		<g>
			<polygon style="fill:#407BFF;" points="215.716,290.387 249.571,366.979 240.604,363.886 240.623,369.648 232.749,362.029 
				228.893,366.543 220.913,361.731 216.402,368.707 210.962,361.762 205.64,368.315 199.133,362.13 193.545,366.994 
				193.156,360.206 182.343,367.19 			"></polygon>
			<polygon style="opacity:0.1;fill:#FFFFFF;" points="215.716,290.387 249.571,366.979 240.604,363.886 240.623,369.648 
				232.749,362.029 228.893,366.543 220.913,361.731 216.402,368.707 210.962,361.762 205.64,368.315 199.133,362.13 
				193.545,366.994 193.156,360.206 182.343,367.19 			"></polygon>
			<polygon style="opacity:0.2;fill:#FFFFFF;" points="215.716,290.387 249.571,366.979 240.604,363.886 240.623,369.648 
				232.749,362.029 228.893,366.543 220.913,361.731 216.402,368.707 210.962,361.762 205.64,368.315 199.133,362.13 
				193.545,366.994 193.156,360.206 182.343,367.19 			"></polygon>
		</g>
		<g>
			<polygon style="fill:#407BFF;" points="215.697,283.752 194.47,331.536 200.16,329.577 200.172,333.163 205.15,328.389 
				207.619,331.187 212.671,328.162 215.567,332.481 219.001,328.142 222.41,332.195 226.522,328.323 230.096,331.329 
				230.316,327.104 237.217,331.403 			"></polygon>
			<polygon style="opacity:0.4;fill:#FFFFFF;" points="215.697,283.752 194.47,331.536 200.16,329.577 200.172,333.163 
				205.15,328.389 207.619,331.187 212.671,328.162 215.567,332.481 219.001,328.142 222.41,332.195 226.522,328.323 
				230.096,331.329 230.316,327.104 237.217,331.403 			"></polygon>
		</g>
		<g>
			<polygon style="fill:#407BFF;" points="201.897,310.548 206.384,307.362 206.525,310.49 208.846,308.263 211.519,311.128 
				213.733,308.126 215.963,311.34 217.844,308.142 221.125,310.376 222.732,308.306 225.961,311.838 225.969,309.185 
				229.665,310.634 215.893,275.286 			"></polygon>
			<polygon style="opacity:0.6;fill:#FFFFFF;" points="201.897,310.548 206.384,307.362 206.525,310.49 208.846,308.263 
				211.519,311.128 213.733,308.126 215.963,311.34 217.844,308.142 221.125,310.376 222.732,308.306 225.961,311.838 
				225.969,309.185 229.665,310.634 215.893,275.286 			"></polygon>
		</g>
		<path style="fill:#407BFF;" d="M214.321,275.286c0,0-8.511,20.005-2.797,13.926c0,0,4.013,6.849,6.566,1.175
			c0,0,5.715,3.81,4.256-1.054C220.887,284.47,217.025,268.434,214.321,275.286z"></path>
		<g>
			<path style="fill:#407BFF;" d="M213.825,329.152c-0.604-2.15-0.166-8.136,7.175-5.321c0,0,3.366-3.687,7.459-1.18
				c0,0,3.663-2.977,6.849,2.583c3.186,5.56-5.197,2.743-5.197,2.743s-6.845,5.178-12.038,0.457
				C218.073,328.434,215.157,333.897,213.825,329.152z"></path>
			<path style="opacity:0.9;fill:#FFFFFF;" d="M213.825,329.152c-0.604-2.15-0.166-8.136,7.175-5.321c0,0,3.366-3.687,7.459-1.18
				c0,0,3.663-2.977,6.849,2.583c3.186,5.56-5.197,2.743-5.197,2.743s-6.845,5.178-12.038,0.457
				C218.073,328.434,215.157,333.897,213.825,329.152z"></path>
		</g>
		<g>
			<path style="fill:#407BFF;" d="M202.718,306.708c0.893-2.179,4.182-5.607,7.999-2.142c0,0,3.802-3.48,5.721,0
				c0,0,3.207-4.234,5.046,0.94c1.839,5.174-4.882,2.951-4.882,2.951s-4.52,4.652-7.041,0.87
				C209.561,309.327,200.776,311.446,202.718,306.708z"></path>
			<path style="opacity:0.9;fill:#FFFFFF;" d="M202.718,306.708c0.893-2.179,4.182-5.607,7.999-2.142c0,0,3.802-3.48,5.721,0
				c0,0,3.207-4.234,5.046,0.94c1.839,5.174-4.882,2.951-4.882,2.951s-4.52,4.652-7.041,0.87
				C209.561,309.327,200.776,311.446,202.718,306.708z"></path>
		</g>
		<g>
			<path style="fill:#407BFF;" d="M250.077,359.059c-2.338-5.516-10.214-9.366-13.502-4.519c0,0-10.717-3.566-11.093,4.519
				c0,0-5.495-5.135-9.018,0c-4.218,6.146,8.191,4.827,8.191,4.827s10.661,4.475,13.296-3.059
				C237.95,360.827,253.758,367.742,250.077,359.059z"></path>
			<path style="opacity:0.9;fill:#FFFFFF;" d="M250.077,359.059c-2.338-5.516-10.214-9.366-13.502-4.519
				c0,0-10.717-3.566-11.093,4.519c0,0-5.495-5.135-9.018,0c-4.218,6.146,8.191,4.827,8.191,4.827s10.661,4.475,13.296-3.059
				C237.95,360.827,253.758,367.742,250.077,359.059z"></path>
		</g>
		<path style="opacity:0.9;fill:#FFFFFF;" d="M214.321,275.286c0,0-8.511,20.005-2.797,13.926c0,0,4.013,6.849,6.566,1.175
			c0,0,5.715,3.81,4.256-1.054C220.887,284.47,217.025,268.434,214.321,275.286z"></path>
	</g>
</g>
<g id="SvgjsG1003">
	<g>
		<polygon style="fill:#407BFF;" points="338.96,382.123 355.17,381.976 350.478,344.095 343.652,344.095 		"></polygon>
		<polygon style="opacity:0.3;" points="338.96,382.123 355.17,381.976 350.478,344.095 343.652,344.095 		"></polygon>
		<g>
			<polygon style="fill:#407BFF;" points="348.853,255.982 303.031,359.646 315.168,355.461 315.142,363.259 325.799,352.946 
				331.019,359.057 341.819,352.543 347.925,361.985 355.288,352.586 362.491,361.455 371.297,353.084 378.862,359.667 
				379.387,350.48 394.022,359.932 			"></polygon>
			<polygon style="opacity:0.1;fill:#FFFFFF;" points="348.853,255.982 303.031,359.646 315.168,355.461 315.142,363.259 
				325.799,352.946 331.019,359.057 341.819,352.543 347.925,361.985 355.288,352.586 362.491,361.455 371.297,353.084 
				378.862,359.667 379.387,350.48 394.022,359.932 			"></polygon>
			<polygon style="opacity:0.2;fill:#FFFFFF;" points="348.853,255.982 303.031,359.646 315.168,355.461 315.142,363.259 
				325.799,352.946 331.019,359.057 341.819,352.543 347.925,361.985 355.288,352.586 362.491,361.455 371.297,353.084 
				378.862,359.667 379.387,350.48 394.022,359.932 			"></polygon>
		</g>
		<g>
			<polygon style="fill:#407BFF;" points="348.88,247.001 377.61,311.676 369.907,309.023 369.891,313.877 363.155,307.416 
				359.813,311.204 352.975,307.108 349.055,312.954 344.408,307.082 339.793,312.567 334.228,307.326 329.39,311.395 
				329.093,305.676 319.752,311.496 			"></polygon>
			<polygon style="opacity:0.4;fill:#FFFFFF;" points="348.88,247.001 377.61,311.676 369.907,309.023 369.891,313.877 
				363.155,307.416 359.813,311.204 352.975,307.108 349.055,312.954 344.408,307.082 339.793,312.567 334.228,307.326 
				329.39,311.395 329.093,305.676 319.752,311.496 			"></polygon>
		</g>
		<g>
			<polygon style="fill:#407BFF;" points="367.557,283.269 361.483,278.957 361.293,283.19 358.152,280.177 354.534,284.054 
				351.537,279.991 348.519,284.341 345.973,280.012 341.533,283.036 339.358,280.235 334.987,285.014 334.976,281.423 
				329.974,283.386 348.614,235.543 			"></polygon>
			<polygon style="opacity:0.6;fill:#FFFFFF;" points="367.557,283.269 361.483,278.957 361.293,283.19 358.152,280.177 
				354.534,284.054 351.537,279.991 348.519,284.341 345.973,280.012 341.533,283.036 339.358,280.235 334.987,285.014 
				334.976,281.423 329.974,283.386 348.614,235.543 			"></polygon>
		</g>
		<path style="fill:#407BFF;" d="M350.741,235.543c0,0,11.52,27.077,3.785,18.848c0,0-5.431,9.27-8.887,1.59
			c0,0-7.735,5.157-5.76-1.426C341.854,247.973,347.082,226.269,350.741,235.543z"></path>
		<g>
			<path style="fill:#407BFF;" d="M351.413,308.449c0.817-2.91,0.225-11.012-9.711-7.202c0,0-4.556-4.99-10.096-1.597
				c0,0-4.958-4.029-9.271,3.496c-4.313,7.526,7.034,3.712,7.034,3.712s9.265,7.008,16.293,0.619
				C345.663,307.477,349.61,314.871,351.413,308.449z"></path>
			<path style="opacity:0.9;fill:#FFFFFF;" d="M351.413,308.449c0.817-2.91,0.225-11.012-9.711-7.202c0,0-4.556-4.99-10.096-1.597
				c0,0-4.958-4.029-9.271,3.496c-4.313,7.526,7.034,3.712,7.034,3.712s9.265,7.008,16.293,0.619
				C345.663,307.477,349.61,314.871,351.413,308.449z"></path>
		</g>
		<g>
			<path style="fill:#407BFF;" d="M366.446,278.071c-1.209-2.95-5.66-7.589-10.826-2.899c0,0-5.146-4.71-7.743,0
				c0,0-4.341-5.731-6.83,1.272c-2.489,7.003,6.608,3.994,6.608,3.994s6.117,6.297,9.53,1.178
				C357.184,281.617,369.074,284.484,366.446,278.071z"></path>
			<path style="opacity:0.9;fill:#FFFFFF;" d="M366.446,278.071c-1.209-2.95-5.66-7.589-10.826-2.899c0,0-5.146-4.71-7.743,0
				c0,0-4.341-5.731-6.83,1.272c-2.489,7.003,6.608,3.994,6.608,3.994s6.117,6.297,9.53,1.178
				C357.184,281.617,369.074,284.484,366.446,278.071z"></path>
		</g>
		<g>
			<path style="fill:#407BFF;" d="M302.347,348.926c3.165-7.465,13.825-12.676,18.275-6.116c0,0,14.505-4.827,15.014,6.116
				c0,0,7.437-6.95,12.206,0c5.709,8.319-11.087,6.533-11.087,6.533s-14.429,6.057-17.996-4.14
				C318.76,351.32,297.365,360.68,302.347,348.926z"></path>
			<path style="opacity:0.9;fill:#FFFFFF;" d="M302.347,348.926c3.165-7.465,13.825-12.676,18.275-6.116
				c0,0,14.505-4.827,15.014,6.116c0,0,7.437-6.95,12.206,0c5.709,8.319-11.087,6.533-11.087,6.533s-14.429,6.057-17.996-4.14
				C318.76,351.32,297.365,360.68,302.347,348.926z"></path>
		</g>
		<path style="opacity:0.9;fill:#FFFFFF;" d="M350.741,235.543c0,0,11.52,27.077,3.785,18.848c0,0-5.431,9.27-8.887,1.59
			c0,0-7.735,5.157-5.76-1.426C341.854,247.973,347.082,226.269,350.741,235.543z"></path>
	</g>
	<g>
		<polygon style="fill:#407BFF;" points="165.034,383.123 148.462,382.973 153.259,344.247 160.237,344.247 		"></polygon>
		<polygon style="opacity:0.3;" points="165.034,383.123 148.462,382.973 153.259,344.247 160.237,344.247 		"></polygon>
		<g>
			<polygon style="fill:#407BFF;" points="154.92,254.172 201.763,360.145 189.355,355.867 189.383,363.838 178.488,353.296 
				173.152,359.543 162.111,352.884 155.869,362.537 148.342,352.928 140.978,361.995 131.976,353.437 124.243,360.167 
				123.706,350.775 108.745,360.438 			"></polygon>
			<polygon style="opacity:0.1;fill:#FFFFFF;" points="154.92,254.172 201.763,360.145 189.355,355.867 189.383,363.838 
				178.488,353.296 173.152,359.543 162.111,352.884 155.869,362.537 148.342,352.928 140.978,361.995 131.976,353.437 
				124.243,360.167 123.706,350.775 108.745,360.438 			"></polygon>
			<polygon style="opacity:0.2;fill:#FFFFFF;" points="154.92,254.172 201.763,360.145 189.355,355.867 189.383,363.838 
				178.488,353.296 173.152,359.543 162.111,352.884 155.869,362.537 148.342,352.928 140.978,361.995 131.976,353.437 
				124.243,360.167 123.706,350.775 108.745,360.438 			"></polygon>
		</g>
		<g>
			<polygon style="fill:#407BFF;" points="154.893,244.991 125.523,311.107 133.397,308.395 133.413,313.357 140.3,306.752 
				143.717,310.624 150.707,306.437 154.714,312.413 159.465,306.41 164.182,312.017 169.871,306.66 174.817,310.819 
				175.12,304.973 184.67,310.922 			"></polygon>
			<polygon style="opacity:0.4;fill:#FFFFFF;" points="154.893,244.991 125.523,311.107 133.397,308.395 133.413,313.357 
				140.3,306.752 143.717,310.624 150.707,306.437 154.714,312.413 159.465,306.41 164.182,312.017 169.871,306.66 174.817,310.819 
				175.12,304.973 184.67,310.922 			"></polygon>
		</g>
		<g>
			<polygon style="fill:#407BFF;" points="135.799,282.067 142.008,277.658 142.204,281.986 145.414,278.906 149.112,282.87 
				152.176,278.716 155.262,283.163 157.865,278.737 162.404,281.828 164.627,278.965 169.096,283.851 169.106,280.18 
				174.22,282.186 155.164,233.278 			"></polygon>
			<polygon style="opacity:0.6;fill:#FFFFFF;" points="135.799,282.067 142.008,277.658 142.204,281.986 145.414,278.906 
				149.112,282.87 152.176,278.716 155.262,283.163 157.865,278.737 162.404,281.828 164.627,278.965 169.096,283.851 
				169.106,280.18 174.22,282.186 155.164,233.278 			"></polygon>
		</g>
		<path style="fill:#407BFF;" d="M152.99,233.278c0,0-11.777,27.68-3.87,19.268c0,0,5.552,9.477,9.085,1.626
			c0,0,7.907,5.272,5.888-1.458C162.075,245.985,156.731,223.797,152.99,233.278z"></path>
		<g>
			<path style="fill:#407BFF;" d="M152.303,307.808c-0.835-2.975-0.23-11.257,9.927-7.363c0,0,4.657-5.101,10.321-1.633
				c0,0,5.068-4.119,9.477,3.574c4.409,7.693-7.191,3.794-7.191,3.794s-9.471,7.165-16.656,0.633
				C158.182,306.814,154.146,314.372,152.303,307.808z"></path>
			<path style="opacity:0.9;fill:#FFFFFF;" d="M152.303,307.808c-0.835-2.975-0.23-11.257,9.927-7.363c0,0,4.657-5.101,10.321-1.633
				c0,0,5.068-4.119,9.477,3.574c4.409,7.693-7.191,3.794-7.191,3.794s-9.471,7.165-16.656,0.633
				C158.182,306.814,154.146,314.372,152.303,307.808z"></path>
		</g>
		<g>
			<path style="fill:#407BFF;" d="M136.936,276.753c1.236-3.016,5.786-7.758,11.067-2.963c0,0,5.261-4.815,7.915,0
				c0,0,4.438-5.859,6.982,1.301s-6.755,4.083-6.755,4.083s-6.254,6.437-9.742,1.204
				C146.403,280.378,134.249,283.309,136.936,276.753z"></path>
			<path style="opacity:0.9;fill:#FFFFFF;" d="M136.936,276.753c1.236-3.016,5.786-7.758,11.067-2.963c0,0,5.261-4.815,7.915,0
				c0,0,4.438-5.859,6.982,1.301s-6.755,4.083-6.755,4.083s-6.254,6.437-9.742,1.204
				C146.403,280.378,134.249,283.309,136.936,276.753z"></path>
		</g>
		<g>
			<path style="fill:#407BFF;" d="M202.462,349.187c-3.235-7.631-14.133-12.959-18.682-6.252c0,0-14.829-4.934-15.349,6.252
				c0,0-7.602-7.105-12.478,0c-5.836,8.504,11.334,6.679,11.334,6.679s14.751,6.192,18.397-4.232
				C185.684,351.634,207.556,361.202,202.462,349.187z"></path>
			<path style="opacity:0.9;fill:#FFFFFF;" d="M202.462,349.187c-3.235-7.631-14.133-12.959-18.682-6.252
				c0,0-14.829-4.934-15.349,6.252c0,0-7.602-7.105-12.478,0c-5.836,8.504,11.334,6.679,11.334,6.679s14.751,6.192,18.397-4.232
				C185.684,351.634,207.556,361.202,202.462,349.187z"></path>
		</g>
		<path style="opacity:0.9;fill:#FFFFFF;" d="M152.99,233.278c0,0-11.777,27.68-3.87,19.268c0,0,5.552,9.477,9.085,1.626
			c0,0,7.907,5.272,5.888-1.458C162.075,245.985,156.731,223.797,152.99,233.278z"></path>
	</g>
	<g>
		<g>
			<polygon style="fill:#407BFF;" points="411.745,382.456 394.556,382.3 399.532,342.131 406.769,342.131 			"></polygon>
			<polygon style="opacity:0.3;" points="411.745,382.456 394.556,382.3 399.532,342.131 406.769,342.131 			"></polygon>
			<g>
				<g>
					<polygon style="fill:#407BFF;" points="454.201,349.912 438.725,348.88 432.719,356.012 424.295,350.098 413.13,357.394 
						398.006,351.294 379.959,357.394 368.395,349.111 351.719,349.012 356.916,340.707 403.298,266.541 448.89,341.223 					"></polygon>
				</g>
				<g style="opacity:0.2;">
					<polygon style="opacity:0.2;fill:#FFFFFF;" points="454.201,349.912 438.725,348.88 432.719,356.012 424.295,350.098 
						413.13,357.394 398.006,351.294 379.959,357.394 368.395,349.111 351.719,349.012 356.916,340.707 403.298,266.541 
						448.89,341.223 					"></polygon>
				</g>
				<g style="opacity:0.2;">
					<polygon style="opacity:0.2;fill:#FFFFFF;" points="454.201,349.912 438.725,348.88 432.719,356.012 424.295,350.098 
						413.13,357.394 398.006,351.294 379.959,357.394 368.395,349.111 351.719,349.012 356.916,340.707 403.298,266.541 
						448.89,341.223 					"></polygon>
				</g>
			</g>
			<g style="opacity:0.3;">
				<g>
					<polygon style="fill:#FFFFFF;" points="454.201,349.912 438.725,348.88 432.719,356.012 424.295,350.098 413.13,357.394 
						398.006,351.294 379.959,357.394 368.395,349.111 351.719,349.012 356.916,340.707 403.298,266.541 448.89,341.223 					"></polygon>
				</g>
			</g>
			<path style="opacity:0.9;fill:#407BFF;" d="M442.898,327.443c0.393,0.643,0.251,1.52-0.303,1.978
				c-1.6,1.322-3.14,2.772-4.736,4.087c-3.333,2.748-7.418,5.04-11.432,4.022c-4.685-1.181-8.18-6.63-12.976-6.735
				c-4.502-0.094-7.906,4.49-11.991,6.665c-5.304,2.83-12.306,1.286-15.974-3.952c-6.077-8.688-20.242-3.192-23.281-1.59
				c-0.012,0.006-0.024,0.012-0.036,0.019c-1.137,0.585-2.208-0.973-1.479-2.137l42.324-67.572L442.898,327.443z"></path>
			<path style="opacity:0.9;fill:#FFFFFF;" d="M442.898,327.443c0.393,0.643,0.251,1.52-0.303,1.978
				c-1.6,1.322-3.14,2.772-4.736,4.087c-3.333,2.748-7.418,5.04-11.432,4.022c-4.685-1.181-8.18-6.63-12.976-6.735
				c-4.502-0.094-7.906,4.49-11.991,6.665c-5.304,2.83-12.306,1.286-15.974-3.952c-6.077-8.688-20.242-3.192-23.281-1.59
				c-0.012,0.006-0.024,0.012-0.036,0.019c-1.137,0.585-2.208-0.973-1.479-2.137l42.324-67.572L442.898,327.443z"></path>
			<g>
				<g>
					<polygon style="fill:#407BFF;" points="446.111,318.194 433.138,317.229 428.102,323.965 421.03,318.38 411.674,325.271 
						398.996,319.51 383.871,325.271 374.172,317.437 360.19,317.349 365.558,307.662 403.431,239.365 440.628,308.068 					"></polygon>
					<g style="opacity:0.4;">
						<polygon style="opacity:0.4;fill:#FFFFFF;" points="446.111,318.194 433.138,317.229 428.102,323.965 421.03,318.38 
							411.674,325.271 398.996,319.51 383.871,325.271 374.172,317.437 360.19,317.349 365.558,307.662 403.431,239.365 
							440.628,308.068 						"></polygon>
					</g>
					<polygon style="opacity:0.4;fill:#FFFFFF;" points="446.111,318.194 433.138,317.229 428.102,323.965 421.03,318.38 
						411.674,325.271 398.996,319.51 383.871,325.271 374.172,317.437 360.19,317.349 365.558,307.662 403.431,239.365 
						440.628,308.068 					"></polygon>
				</g>
				<g>
					<path style="opacity:0.9;fill:#407BFF;" d="M431.883,288.842c0.556,1.028-0.048,2.332-1.095,2.436
						c-0.008,0.001-0.016,0.001-0.024,0.002c-4.421,0.46-8.484,2.876-12.476,5.096c-4.002,2.22-8.244,4.349-12.686,4.153
						c-5.409-0.23-10.29-3.865-15.65-4.705c-4.411-0.69-8.893,0.552-13.334,0.23c-1.243-0.087-2.525-0.354-3.746-0.808
						c-0.85-0.316-1.188-1.501-0.707-2.368l31.321-56.485L431.883,288.842z"></path>
					<path style="opacity:0.9;fill:#FFFFFF;" d="M431.883,288.842c0.556,1.028-0.048,2.332-1.095,2.436
						c-0.008,0.001-0.016,0.001-0.024,0.002c-4.421,0.46-8.484,2.876-12.476,5.096c-4.002,2.22-8.244,4.349-12.686,4.153
						c-5.409-0.23-10.29-3.865-15.65-4.705c-4.411-0.69-8.893,0.552-13.334,0.23c-1.243-0.087-2.525-0.354-3.746-0.808
						c-0.85-0.316-1.188-1.501-0.707-2.368l31.321-56.485L431.883,288.842z"></path>
					<path style="opacity:0.9;fill:#FFFFFF;" d="M430.322,297.049c-2.776,1.137-5.081,3.71-6.158,6.87
						c0.931,1.998,2.23,3.633,4.191,3.822c1.245-1.443,2.778-2.101,4.023-3.544c1.13-0.05,2.609,0.373,3.739,0.324
						c0.288-1.589,0.748-3.15,1.036-4.739c-0.668-1.622-1.383-2.893-2.536-4.101C433.573,295.928,431.326,296.638,430.322,297.049z"></path>
				</g>
			</g>
			<g>
				<g>
					<path style="fill:#407BFF;" d="M432.814,278.368l-7.691-2.084l-4.064,5.705l-5.435-4.663l-7.234,5.76l-9.499-4.718
						l-11.079,4.718l-7.015-6.286h-7.691l3.531-7.866l21.128-46.995c1.842-4.098,7.659-4.105,9.51-0.011l21.474,47.467
						L432.814,278.368z"></path>
					<path style="opacity:0.6;fill:#FFFFFF;" d="M432.814,278.368l-7.691-2.084l-4.064,5.705l-5.435-4.663l-7.234,5.76l-9.499-4.718
						l-11.079,4.718l-7.015-6.286h-7.691l3.531-7.866l21.128-46.995c1.842-4.098,7.659-4.105,9.51-0.011l21.474,47.467
						L432.814,278.368z"></path>
				</g>
				<g>
					<path style="opacity:0.9;fill:#FFFFFF;" d="M424.841,259.471c-1.106-0.985-2.788-0.417-3.183,1.129
						c-0.319,1.249,0.177,2.639,0.975,3.572c0.819,0.957,1.909,1.532,2.972,2.085c0.136,0.071,0.274,0.104,0.415,0.114
						c0.854,0.06,1.54-0.844,1.476-1.828C427.37,262.625,426.212,260.692,424.841,259.471z"></path>
					<path style="opacity:0.9;fill:#FFFFFF;" d="M413.217,261.392c-0.678-0.603-1.708-0.255-1.95,0.691
						c-0.195,0.765,0.108,1.617,0.597,2.188c0.502,0.586,1.169,0.938,1.82,1.277c0.083,0.043,0.168,0.064,0.254,0.07
						c0.523,0.036,0.943-0.517,0.904-1.12C414.765,263.323,414.056,262.14,413.217,261.392z"></path>
				</g>
			</g>
			<path style="opacity:0.9;fill:#FFFFFF;" d="M370.16,337.48c0.473-0.136,4.255-0.083,6.505-0.038
				c1.055,0.021,2.044,0.585,2.699,1.539v0c1.197,1.744,0.952,4.275-0.55,5.671l-1.046,0.973c-0.72,0.67-1.651,0.962-2.567,0.803
				l-5.239-0.904c-0.833-0.144-1.587-0.648-2.109-1.411l0,0c-1.223-1.789-0.821-4.407,0.86-5.604L370.16,337.48z"></path>
		</g>
		<g>
			<path style="fill:#407BFF;" d="M396.906,309.211c0.92-3.278,0.253-12.404-10.94-8.113c0,0-5.132-5.621-11.373-1.799
				c0,0-5.585-4.539-10.443,3.938c-4.858,8.477,7.924,4.181,7.924,4.181s10.436,7.895,18.354,0.697
				C390.428,308.116,394.875,316.445,396.906,309.211z"></path>
			<path style="opacity:0.9;fill:#FFFFFF;" d="M396.906,309.211c0.92-3.278,0.253-12.404-10.94-8.113c0,0-5.132-5.621-11.373-1.799
				c0,0-5.585-4.539-10.443,3.938c-4.858,8.477,7.924,4.181,7.924,4.181s10.436,7.895,18.354,0.697
				C390.428,308.116,394.875,316.445,396.906,309.211z"></path>
		</g>
		<path style="opacity:0.9;fill:#FFFFFF;" d="M372.091,266.978c1.362-3.323,6.376-8.549,12.195-3.265c0,0,5.797-5.306,8.722,0
			c0,0,4.89-6.456,7.694,1.434c2.804,7.889-7.443,4.499-7.443,4.499s-6.891,7.093-10.735,1.327
			C382.523,270.973,369.13,274.203,372.091,266.978z"></path>
		<path style="opacity:0.9;fill:#FFFFFF;" d="M452.402,341.952c-3.275-6.172-12.912-9.881-16.324-3.943
			c0,0-12.955-3.106-12.633,6.307c0,0-6.955-5.427-10.617,0.867c-4.384,7.534,10.101,4.811,10.101,4.811s12.975,4.166,15.364-4.825
			C438.293,345.168,457.558,351.669,452.402,341.952z"></path>
		<g>
			<path style="fill:#407BFF;" d="M400.297,210.036c0,0-12.977,30.501-4.264,21.232c0,0,6.118,10.443,10.011,1.792
				c0,0,8.713,5.809,6.489-1.606C410.308,224.038,404.419,199.589,400.297,210.036z"></path>
			<path style="opacity:0.9;fill:#FFFFFF;" d="M400.297,210.036c0,0-12.977,30.501-4.264,21.232c0,0,6.118,10.443,10.011,1.792
				c0,0,8.713,5.809,6.489-1.606C410.308,224.038,404.419,199.589,400.297,210.036z"></path>
		</g>
	</g>
	<g>
		<g>
			<polygon style="fill:#407BFF;" points="103.359,383.033 85.922,382.875 90.97,342.126 98.312,342.126 			"></polygon>
			<polygon style="opacity:0.3;" points="103.359,383.033 85.922,382.875 90.97,342.126 98.312,342.126 			"></polygon>
			<g>
				<polygon style="fill:#407BFF;" points="146.428,350.019 130.728,348.973 124.635,356.207 116.09,350.208 104.765,357.61 
					89.422,351.422 71.115,357.61 59.383,349.207 42.466,349.107 47.738,340.681 94.79,265.445 141.041,341.205 				"></polygon>
			</g>
			<g style="opacity:0.2;">
				<polygon style="opacity:0.2;fill:#FFFFFF;" points="146.428,350.019 130.728,348.973 124.635,356.207 116.09,350.208 
					104.765,357.61 89.422,351.422 71.115,357.61 59.383,349.207 42.466,349.107 47.738,340.681 94.79,265.445 141.041,341.205 				
					"></polygon>
			</g>
			<polygon style="opacity:0.3;fill:#FFFFFF;" points="146.428,350.019 130.728,348.973 124.635,356.207 116.09,350.208 
				104.765,357.61 89.422,351.422 71.115,357.61 59.383,349.207 42.466,349.107 47.738,340.681 94.79,265.445 141.041,341.205 			
				"></polygon>
			<path style="opacity:0.9;fill:#407BFF;" d="M134.962,327.227c0.399,0.652,0.255,1.542-0.307,2.006
				c-1.623,1.341-3.185,2.813-4.804,4.146c-3.382,2.787-7.525,5.112-11.597,4.08c-4.752-1.198-8.298-6.726-13.164-6.832
				c-4.567-0.095-8.02,4.555-12.164,6.761c-5.381,2.871-12.484,1.305-16.205-4.009c-6.164-8.814-20.535-3.238-23.617-1.613
				c-0.012,0.006-0.024,0.013-0.036,0.019c-1.154,0.594-2.24-0.987-1.5-2.168l42.935-68.548L134.962,327.227z"></path>
			<path style="opacity:0.9;fill:#FFFFFF;" d="M134.962,327.227c0.399,0.652,0.255,1.542-0.307,2.006
				c-1.623,1.341-3.185,2.813-4.804,4.146c-3.382,2.787-7.525,5.112-11.597,4.08c-4.752-1.198-8.298-6.726-13.164-6.832
				c-4.567-0.095-8.02,4.555-12.164,6.761c-5.381,2.871-12.484,1.305-16.205-4.009c-6.164-8.814-20.535-3.238-23.617-1.613
				c-0.012,0.006-0.024,0.013-0.036,0.019c-1.154,0.594-2.24-0.987-1.5-2.168l42.935-68.548L134.962,327.227z"></path>
			<g>
				<g>
					<polygon style="fill:#407BFF;" points="138.221,317.844 125.061,316.864 119.953,323.698 112.779,318.033 103.287,325.022 
						90.426,319.179 75.083,325.022 65.244,317.076 51.06,316.987 56.506,307.159 94.925,237.877 132.659,307.571 					"></polygon>
					<g style="opacity:0.4;">
						<polygon style="opacity:0.4;fill:#FFFFFF;" points="138.221,317.844 125.061,316.864 119.953,323.698 112.779,318.033 
							103.287,325.022 90.426,319.179 75.083,325.022 65.244,317.076 51.06,316.987 56.506,307.159 94.925,237.877 132.659,307.571 
													"></polygon>
					</g>
					<polygon style="opacity:0.4;fill:#FFFFFF;" points="138.221,317.844 125.061,316.864 119.953,323.698 112.779,318.033 
						103.287,325.022 90.426,319.179 75.083,325.022 65.244,317.076 51.06,316.987 56.506,307.159 94.925,237.877 132.659,307.571 
											"></polygon>
				</g>
				<g>
					<path style="opacity:0.9;fill:#407BFF;" d="M123.788,288.068c0.564,1.043-0.048,2.366-1.111,2.471
						c-0.008,0.001-0.016,0.002-0.024,0.003c-4.485,0.467-8.606,2.918-12.656,5.17c-4.06,2.252-8.363,4.411-12.869,4.213
						c-5.488-0.233-10.438-3.921-15.876-4.773c-4.475-0.7-9.021,0.56-13.527,0.234c-1.261-0.089-2.561-0.359-3.8-0.82
						c-0.862-0.321-1.205-1.523-0.718-2.402l31.774-57.301L123.788,288.068z"></path>
					<path style="opacity:0.9;fill:#FFFFFF;" d="M123.788,288.068c0.564,1.043-0.048,2.366-1.111,2.471
						c-0.008,0.001-0.016,0.002-0.024,0.003c-4.485,0.467-8.606,2.918-12.656,5.17c-4.06,2.252-8.363,4.411-12.869,4.213
						c-5.488-0.233-10.438-3.921-15.876-4.773c-4.475-0.7-9.021,0.56-13.527,0.234c-1.261-0.089-2.561-0.359-3.8-0.82
						c-0.862-0.321-1.205-1.523-0.718-2.402l31.774-57.301L123.788,288.068z"></path>
					<path style="opacity:0.9;fill:#FFFFFF;" d="M122.204,296.394c-2.816,1.154-5.155,3.763-6.247,6.97
						c0.945,2.027,2.262,3.685,4.252,3.877c1.263-1.464,2.818-2.132,4.081-3.595c1.146-0.05,2.646,0.379,3.793,0.329
						c0.292-1.612,0.759-3.195,1.051-4.807c-0.677-1.646-1.403-2.935-2.572-4.16C125.503,295.256,123.223,295.976,122.204,296.394z"></path>
				</g>
			</g>
			<g>
				<g>
					<path style="fill:#407BFF;" d="M124.732,277.443l-7.802-2.115l-4.123,5.787l-5.513-4.73l-7.338,5.843l-9.636-4.786
						l-11.239,4.786l-7.116-6.377h-7.802l3.582-7.98l21.433-47.673c1.869-4.157,7.769-4.164,9.648-0.011l21.784,48.152
						L124.732,277.443z"></path>
					<path style="opacity:0.6;fill:#FFFFFF;" d="M124.732,277.443l-7.802-2.115l-4.123,5.787l-5.513-4.73l-7.338,5.843l-9.636-4.786
						l-11.239,4.786l-7.116-6.377h-7.802l3.582-7.98l21.433-47.673c1.869-4.157,7.769-4.164,9.648-0.011l21.784,48.152
						L124.732,277.443z"></path>
				</g>
				<g>
					<path style="opacity:0.9;fill:#FFFFFF;" d="M116.645,258.272c-1.122-0.999-2.828-0.423-3.229,1.145
						c-0.324,1.267,0.18,2.677,0.989,3.623c0.831,0.971,1.936,1.554,3.015,2.115c0.138,0.072,0.278,0.106,0.421,0.116
						c0.867,0.061,1.563-0.856,1.497-1.854C119.209,261.472,118.035,259.511,116.645,258.272z"></path>
					<path style="opacity:0.9;fill:#FFFFFF;" d="M104.852,260.221c-0.687-0.612-1.732-0.259-1.978,0.701
						c-0.198,0.776,0.11,1.64,0.606,2.219c0.509,0.595,1.186,0.952,1.846,1.296c0.085,0.044,0.171,0.065,0.258,0.071
						c0.531,0.037,0.957-0.524,0.917-1.136C106.423,262.181,105.704,260.98,104.852,260.221z"></path>
				</g>
			</g>
			<path style="opacity:0.9;fill:#FFFFFF;" d="M61.174,337.408c0.479-0.138,4.316-0.084,6.599-0.038
				c1.07,0.021,2.074,0.594,2.737,1.561v0c1.214,1.77,0.965,4.336-0.558,5.753l-1.061,0.987c-0.731,0.68-1.675,0.975-2.604,0.815
				l-5.314-0.917c-0.845-0.146-1.61-0.658-2.139-1.432l0,0c-1.241-1.815-0.833-4.47,0.872-5.685L61.174,337.408z"></path>
		</g>
		<g>
			<path style="fill:#407BFF;" d="M88.306,308.731c0.934-3.326,0.257-12.583-11.098-8.23c0,0-5.206-5.702-11.537-1.825
				c0,0-5.665-4.604-10.594,3.995c-4.928,8.6,8.038,4.242,8.038,4.242s10.587,8.009,18.619,0.707
				C81.734,307.62,86.245,316.069,88.306,308.731z"></path>
			<path style="opacity:0.9;fill:#FFFFFF;" d="M88.306,308.731c0.934-3.326,0.257-12.583-11.098-8.23c0,0-5.206-5.702-11.537-1.825
				c0,0-5.665-4.604-10.594,3.995c-4.928,8.6,8.038,4.242,8.038,4.242s10.587,8.009,18.619,0.707
				C81.734,307.62,86.245,316.069,88.306,308.731z"></path>
		</g>
		<path style="opacity:0.9;fill:#FFFFFF;" d="M63.132,265.889c1.381-3.371,6.468-8.672,12.371-3.312c0,0,5.881-5.383,8.848,0
			c0,0,4.961-6.549,7.805,1.454c2.844,8.003-7.551,4.564-7.551,4.564s-6.99,7.196-10.89,1.346
			C73.715,269.94,60.129,273.217,63.132,265.889z"></path>
		<path style="opacity:0.9;fill:#FFFFFF;" d="M144.603,341.944c-3.322-6.261-13.098-10.023-16.56-4c0,0-13.142-3.151-12.815,6.398
			c0,0-7.055-5.505-10.771,0.879c-4.447,7.642,10.247,4.88,10.247,4.88s13.162,4.226,15.586-4.895
			C130.291,345.207,149.834,351.802,144.603,341.944z"></path>
		<g>
			<path style="fill:#407BFF;" d="M91.746,208.124c0,0-13.164,30.942-4.326,21.539c0,0,6.206,10.594,10.155,1.818
				c0,0,8.839,5.893,6.582-1.63C101.902,222.329,95.927,197.526,91.746,208.124z"></path>
			<path style="opacity:0.9;fill:#FFFFFF;" d="M91.746,208.124c0,0-13.164,30.942-4.326,21.539c0,0,6.206,10.594,10.155,1.818
				c0,0,8.839,5.893,6.582-1.63C101.902,222.329,95.927,197.526,91.746,208.124z"></path>
		</g>
	</g>
	<g>
		<path style="fill:#407BFF;" d="M92.14,383.126c0,0,46.567-13.297,62.567-13.492c14.03-0.171,41.145,9.4,55.133,10.492
			c31.644,2.471,94.616-12.011,126.354-12.419c29.685-0.382,117.743,15.419,117.743,15.419H92.14z"></path>
		<path style="opacity:0.8;fill:#FFFFFF;" d="M92.14,383.126c0,0,46.567-13.297,62.567-13.492c14.03-0.171,41.145,9.4,55.133,10.492
			c31.644,2.471,94.616-12.011,126.354-12.419c29.685-0.382,117.743,15.419,117.743,15.419H92.14z"></path>
	</g>
</g>
<g id="SvgjsG1002">
	<g>
		<path style="fill:#407BFF;" d="M274.834,387.245l-1.901-16.756c-0.588-5.177-4.629-9.287-9.796-9.961l-43.328-5.65l-21.512-17.137
			c-5.628-4.483-12.58-6.981-19.775-7.104l-77.122-1.318c-2.039-0.035-3.797,1.426-4.135,3.437l-3.724,22.122v7.32v20.279
			c0,4.469,2.273,8.63,6.033,11.045l6.993,4.491l157.423,2.091l6.527-4.005C273.552,394.237,275.235,390.785,274.834,387.245z"></path>
		<path style="opacity:0.2;" d="M274.834,387.245l-1.901-16.756c-0.588-5.177-4.629-9.287-9.796-9.961l-43.328-5.65l-21.512-17.137
			c-5.628-4.483-12.58-6.981-19.775-7.104l-77.122-1.318c-2.039-0.035-3.797,1.426-4.135,3.437l-3.724,22.122v7.32v20.279
			c0,4.469,2.273,8.63,6.033,11.045l6.993,4.491l157.423,2.091l6.527-4.005C273.552,394.237,275.235,390.785,274.834,387.245z"></path>
		<path style="opacity:0.5;fill:#407BFF;" d="M212.281,395.744l1.064-31.937c0.076-2.297-0.715-4.539-2.218-6.279l-2.218-2.567
			l-53.344-0.915l1.223,41.697H212.281z"></path>
		<path style="fill:#407BFF;" d="M86.926,378.698L86.926,378.698c-3.898,0-7.059-3.16-7.059-7.059v-22.812
			c0-3.898,3.16-7.059,7.059-7.059l0,0c3.898,0,7.058,3.16,7.058,7.059v22.812C93.984,375.538,90.824,378.698,86.926,378.698z"></path>
		<path style="opacity:0.4;" d="M86.926,378.698L86.926,378.698c-3.898,0-7.059-3.16-7.059-7.059v-22.812
			c0-3.898,3.16-7.059,7.059-7.059l0,0c3.898,0,7.058,3.16,7.058,7.059v22.812C93.984,375.538,90.824,378.698,86.926,378.698z"></path>
		<g>
			<path style="fill:#263238;" d="M93.753,354.047h125.152l-20.527-16.352c-1.139-0.907-2.334-1.729-3.572-2.47H96.921
				L93.753,354.047z"></path>
			<path style="opacity:0.4;fill:#FFFFFF;" d="M93.753,354.047h125.152l-20.527-16.352c-1.139-0.907-2.334-1.729-3.572-2.47H96.921
				L93.753,354.047z"></path>
		</g>
		<path style="fill:#407BFF;" d="M219.889,354.831l-2.133-1.699h-7.815l-17.534-16.992h3.846c-0.995-0.669-2.026-1.277-3.084-1.83
			H97.075l-0.154,0.915l0,0l-3.015,17.908l0,0l-0.286,1.699v0.131h127.271L219.889,354.831z M204.681,353.132h-44.794l-2.498-16.992
			h29.758L204.681,353.132z M98.49,336.139h52.382v16.992H95.63L98.49,336.139z"></path>
		<path style="opacity:0.4;" d="M219.889,354.831l-2.133-1.699h-7.815l-17.534-16.992h3.846c-0.995-0.669-2.026-1.277-3.084-1.83
			H97.075l-0.154,0.915l0,0l-3.015,17.908l0,0l-0.286,1.699v0.131h127.271L219.889,354.831z M204.681,353.132h-44.794l-2.498-16.992
			h29.758L204.681,353.132z M98.49,336.139h52.382v16.992H95.63L98.49,336.139z"></path>
		<path style="opacity:0.7;fill:#FFFFFF;" d="M268.286,372.514c0.613,1.431,2.021,2.36,3.579,2.36h1.65l-0.503-4.431
			c-0.167-1.474-0.615-2.862-1.289-4.108h-6.085L268.286,372.514z"></path>
		<g style="opacity:0.4;">
			<path d="M118.674,366.421h-6.71c-1.466,0-2.658-1.192-2.658-2.658v-2.179c0-1.466,1.192-2.658,2.658-2.658h6.71
				c1.465,0,2.658,1.192,2.658,2.658v2.179C121.331,365.229,120.139,366.421,118.674,366.421z M111.964,359.45
				c-1.177,0-2.135,0.958-2.135,2.135v2.179c0,1.177,0.958,2.135,2.135,2.135h6.71c1.177,0,2.135-0.958,2.135-2.135v-2.179
				c0-1.177-0.958-2.135-2.135-2.135H111.964z"></path>
		</g>
		<g>
			<path style="fill:#407BFF;" d="M163.829,365.96h-1.568c-1.191,0-2.157-0.966-2.157-2.157l0,0c0-1.191,0.966-2.157,2.157-2.157
				h1.568c1.191,0,2.157,0.966,2.157,2.157l0,0C165.986,364.994,165.02,365.96,163.829,365.96z"></path>
			<path style="opacity:0.2;" d="M163.829,365.96h-1.568c-1.191,0-2.157-0.966-2.157-2.157l0,0c0-1.191,0.966-2.157,2.157-2.157
				h1.568c1.191,0,2.157,0.966,2.157,2.157l0,0C165.986,364.994,165.02,365.96,163.829,365.96z"></path>
		</g>
		<g>
			<g>
				<path style="fill:#263238;" d="M274.965,388.143l-4.325-0.057l-0.29-3.145c-0.859-9.301-8.661-16.417-18.002-16.417h-14.722
					c-7.791,0-14.706,4.991-17.159,12.386l-2.15,6.48l-67.415-0.896l-2.464-6.544c-2.586-6.867-9.155-11.413-16.493-11.413h-13.438
					c-7.954,0-14.922,5.328-17.007,13.004l-1.163,4.281l-6.354-0.085c0.663,2.777,2.218,5.278,4.447,7.105v0l0,0
					c0.186,0.152,0.376,0.301,0.572,0.444c0.011,0.008,0.023,0.017,0.034,0.026c0.201,0.146,0.406,0.288,0.616,0.424l6.993,4.491
					l48.918,0.65l0,0l108.505,1.441l6.527-4.005c0.139-0.085,0.274-0.176,0.406-0.269
					C273.592,394.261,275.086,391.276,274.965,388.143z"></path>
				<path style="opacity:0.3;fill:#FFFFFF;" d="M274.965,388.143l-4.325-0.057l-0.29-3.145c-0.859-9.301-8.661-16.417-18.002-16.417
					h-14.722c-7.791,0-14.706,4.991-17.159,12.386l-2.15,6.48l-67.415-0.896l-2.464-6.544c-2.586-6.867-9.155-11.413-16.493-11.413
					h-13.438c-7.954,0-14.922,5.328-17.007,13.004l-1.163,4.281l-6.354-0.085c0.663,2.777,2.218,5.278,4.447,7.105v0l0,0
					c0.186,0.152,0.376,0.301,0.572,0.444c0.011,0.008,0.023,0.017,0.034,0.026c0.201,0.146,0.406,0.288,0.616,0.424l6.993,4.491
					l48.918,0.65l0,0l108.505,1.441l6.527-4.005c0.139-0.085,0.274-0.176,0.406-0.269
					C273.592,394.261,275.086,391.276,274.965,388.143z"></path>
			</g>
			<polygon style="opacity:0.2;" points="102.122,395.061 106.647,397.966 151.54,398.563 145.818,383.152 143.988,379.231 
				140.154,375.222 134.316,372.434 118.63,372.434 113.456,373.566 107.418,378.196 105.036,384.16 			"></polygon>
			<path style="fill:#263238;" d="M103.174,395.736l3.429-12.624c1.544-5.686,6.706-9.632,12.598-9.632h12.705
				c5.435,0,10.301,3.367,12.217,8.454l6.256,16.614l2.106,0.028l-6.526-17.333c-2.19-5.816-7.837-9.724-14.052-9.724H119.2
				c-6.76,0-12.718,4.556-14.49,11.079l-3.267,12.027L103.174,395.736z"></path>
			<polygon style="opacity:0.2;" points="218.15,399.448 264.069,400.057 268.077,397.599 266.771,385.493 265.638,380.102 
				260.932,374.874 255.268,372.434 237.753,372.434 231.391,373.566 225.747,378.534 223.462,385.493 			"></polygon>
			<path style="fill:#263238;" d="M267.754,385.46c-0.734-7.948-7.306-13.941-15.287-13.941h-14.503
				c-6.628,0-12.484,4.227-14.571,10.519l-5.773,17.403l2.057,0.027l5.578-16.814c1.817-5.478,6.939-9.175,12.71-9.175h14.503
				c6.919,0,12.699,5.271,13.335,12.16l1.167,12.638l1.863-1.143L267.754,385.46z"></path>
		</g>
		<g>
			<g>
				<path style="fill:#263238;" d="M244.831,382.108c-6.863,0-12.426,5.563-12.426,12.426c0,6.863,5.563,12.426,12.426,12.426
					c6.863,0,12.426-5.564,12.426-12.426C257.257,387.672,251.693,382.108,244.831,382.108z M248.756,391.259l0.948-2.827
					c0.349-1.039,1.686-1.359,2.44-0.563c1.072,1.132,1.884,2.512,2.342,4.045c0.314,1.056-0.626,2.063-1.705,1.844l-2.923-0.592
					C248.991,392.99,248.475,392.096,248.756,391.259z M240.906,398.333l-0.948,2.827c-0.348,1.039-1.686,1.359-2.44,0.563
					c-1.072-1.131-1.885-2.512-2.341-4.045c-0.315-1.056,0.626-2.063,1.705-1.844l2.923,0.592
					C240.671,396.602,241.187,397.496,240.906,398.333z M239.805,393.165l-2.923,0.592c-1.08,0.219-2.02-0.788-1.705-1.844
					c0.457-1.533,1.269-2.913,2.341-4.045c0.754-0.796,2.091-0.476,2.44,0.563l0.948,2.827
					C241.187,392.096,240.671,392.99,239.805,393.165z M247.121,404.608c-0.735,0.172-1.502,0.262-2.29,0.262
					c-0.788,0-1.554-0.091-2.29-0.262c-1.091-0.255-1.528-1.568-0.786-2.408l1.975-2.236c0.585-0.662,1.617-0.662,2.202,0
					l1.975,2.236C248.649,403.039,248.212,404.353,247.121,404.608z M247.907,387.392l-1.975,2.236
					c-0.585,0.662-1.617,0.662-2.202,0l-1.975-2.236c-0.742-0.84-0.305-2.154,0.786-2.408c0.736-0.171,1.502-0.262,2.29-0.262
					c0.788,0,1.555,0.091,2.29,0.262C248.212,385.238,248.649,386.552,247.907,387.392z M254.485,397.678
					c-0.457,1.533-1.269,2.914-2.342,4.045c-0.754,0.796-2.091,0.476-2.44-0.563l-0.948-2.827c-0.281-0.837,0.235-1.731,1.101-1.907
					l2.923-0.592C253.859,395.615,254.8,396.622,254.485,397.678z"></path>
				<path style="opacity:0.4;fill:#FFFFFF;" d="M244.831,382.108c-6.863,0-12.426,5.563-12.426,12.426
					c0,6.863,5.563,12.426,12.426,12.426c6.863,0,12.426-5.564,12.426-12.426C257.257,387.672,251.693,382.108,244.831,382.108z
					 M248.756,391.259l0.948-2.827c0.349-1.039,1.686-1.359,2.44-0.563c1.072,1.132,1.884,2.512,2.342,4.045
					c0.314,1.056-0.626,2.063-1.705,1.844l-2.923-0.592C248.991,392.99,248.475,392.096,248.756,391.259z M240.906,398.333
					l-0.948,2.827c-0.348,1.039-1.686,1.359-2.44,0.563c-1.072-1.131-1.885-2.512-2.341-4.045c-0.315-1.056,0.626-2.063,1.705-1.844
					l2.923,0.592C240.671,396.602,241.187,397.496,240.906,398.333z M239.805,393.165l-2.923,0.592
					c-1.08,0.219-2.02-0.788-1.705-1.844c0.457-1.533,1.269-2.913,2.341-4.045c0.754-0.796,2.091-0.476,2.44,0.563l0.948,2.827
					C241.187,392.096,240.671,392.99,239.805,393.165z M247.121,404.608c-0.735,0.172-1.502,0.262-2.29,0.262
					c-0.788,0-1.554-0.091-2.29-0.262c-1.091-0.255-1.528-1.568-0.786-2.408l1.975-2.236c0.585-0.662,1.617-0.662,2.202,0
					l1.975,2.236C248.649,403.039,248.212,404.353,247.121,404.608z M247.907,387.392l-1.975,2.236
					c-0.585,0.662-1.617,0.662-2.202,0l-1.975-2.236c-0.742-0.84-0.305-2.154,0.786-2.408c0.736-0.171,1.502-0.262,2.29-0.262
					c0.788,0,1.555,0.091,2.29,0.262C248.212,385.238,248.649,386.552,247.907,387.392z M254.485,397.678
					c-0.457,1.533-1.269,2.914-2.342,4.045c-0.754,0.796-2.091,0.476-2.44-0.563l-0.948-2.827c-0.281-0.837,0.235-1.731,1.101-1.907
					l2.923-0.592C253.859,395.615,254.8,396.622,254.485,397.678z"></path>
			</g>
			<path style="fill:#263238;" d="M244.831,376.332c-10.197,0-18.464,8.267-18.464,18.464c0,10.198,8.267,18.464,18.464,18.464
				c10.198,0,18.464-8.267,18.464-18.464C263.295,384.598,255.028,376.332,244.831,376.332z M244.831,406.564
				c-6.499,0-11.768-5.269-11.768-11.768c0-6.5,5.269-11.768,11.768-11.768c6.5,0,11.769,5.269,11.769,11.768
				C256.599,401.295,251.33,406.564,244.831,406.564z"></path>
			<g>
				<path style="fill:#407BFF;" d="M263.392,394.273h-1.068c-0.229-0.814-0.976-1.413-1.862-1.413c-0.165,0-0.325,0.023-0.478,0.062
					l-5.954-10.313c0.341-0.349,0.552-0.826,0.552-1.351c0-0.525-0.211-1.002-0.552-1.351l0.536-0.927
					c0.144-0.25,0.059-0.57-0.191-0.714c-0.25-0.144-0.57-0.059-0.714,0.191l-0.536,0.928c-0.153-0.039-0.313-0.062-0.478-0.062
					c-0.886,0-1.633,0.599-1.862,1.413h-11.907c-0.229-0.814-0.976-1.413-1.862-1.413c-0.165,0-0.325,0.023-0.478,0.062
					l-0.535-0.926c-0.144-0.25-0.464-0.336-0.714-0.192c-0.25,0.145-0.336,0.464-0.191,0.714l0.535,0.926
					c-0.341,0.349-0.552,0.826-0.552,1.351c0,0.525,0.211,1.002,0.552,1.351l-5.954,10.313c-0.153-0.039-0.313-0.062-0.478-0.062
					c-0.886,0-1.633,0.599-1.862,1.413h-1.068c-0.289,0-0.523,0.234-0.523,0.523c0,0.289,0.234,0.523,0.523,0.523h1.068
					c0.229,0.814,0.976,1.413,1.862,1.413c0.165,0,0.325-0.023,0.478-0.062l5.954,10.312c-0.341,0.349-0.552,0.826-0.552,1.351
					c0,0.525,0.211,1.002,0.552,1.351l-0.535,0.926c-0.145,0.25-0.059,0.57,0.191,0.714c0.25,0.144,0.57,0.059,0.714-0.191
					l0.535-0.927c0.153,0.039,0.313,0.062,0.478,0.062c0.886,0,1.633-0.599,1.862-1.413h11.907c0.229,0.814,0.976,1.413,1.862,1.413
					c0.165,0,0.325-0.023,0.478-0.062l0.536,0.928c0.144,0.25,0.464,0.336,0.714,0.191c0.25-0.144,0.336-0.464,0.191-0.714
					l-0.536-0.928c0.341-0.349,0.552-0.826,0.552-1.351c0-0.525-0.211-1.002-0.552-1.351l5.954-10.312
					c0.153,0.039,0.313,0.062,0.478,0.062c0.886,0,1.633-0.599,1.862-1.413h1.068c0.289,0,0.523-0.234,0.523-0.523
					C263.915,394.507,263.681,394.273,263.392,394.273z M261.179,394.273h-0.415l-0.206-0.357
					C260.812,393.943,261.035,394.076,261.179,394.273z M251.93,407.81c0.144-0.197,0.366-0.33,0.622-0.358l-0.206,0.358H251.93z
					 M252.646,406.397c-0.886,0-1.633,0.599-1.862,1.413h-11.907c-0.229-0.814-0.976-1.413-1.862-1.413
					c-0.165,0-0.325,0.023-0.478,0.062l-5.954-10.312c0.341-0.349,0.552-0.826,0.552-1.351c0-0.525-0.211-1.002-0.552-1.351
					l5.954-10.313c0.153,0.039,0.313,0.062,0.478,0.062c0.886,0,1.633-0.599,1.862-1.413h11.907
					c0.229,0.814,0.976,1.413,1.862,1.413c0.165,0,0.325-0.023,0.478-0.062l5.954,10.313c-0.341,0.349-0.552,0.826-0.552,1.351
					c0,0.526,0.211,1.002,0.552,1.351l-5.954,10.312C252.971,406.42,252.812,406.397,252.646,406.397z M237.317,407.81l-0.206-0.358
					c0.255,0.028,0.477,0.161,0.621,0.358H237.317z M229.803,394.796l0.208-0.361c0.049,0.111,0.078,0.232,0.078,0.361
					c0,0.129-0.029,0.25-0.078,0.361L229.803,394.796z M237.732,381.782c-0.144,0.197-0.366,0.33-0.621,0.357l0.206-0.357H237.732z
					 M252.345,381.782l0.206,0.357c-0.255-0.028-0.477-0.16-0.621-0.357H252.345z M259.572,394.796c0-0.129,0.029-0.25,0.078-0.361
					l0.208,0.361l-0.208,0.361C259.601,395.046,259.572,394.924,259.572,394.796z M253.536,381.259c0,0.129-0.029,0.25-0.078,0.361
					l-0.208-0.361l0.208-0.361C253.508,381.009,253.536,381.13,253.536,381.259z M252.551,380.378l-0.206,0.358h-0.415
					C252.074,380.539,252.296,380.406,252.551,380.378z M237.732,380.736h-0.415l-0.206-0.358
					C237.365,380.406,237.588,380.539,237.732,380.736z M236.125,381.259c0-0.129,0.029-0.25,0.078-0.361l0.208,0.361l-0.208,0.361
					C236.154,381.509,236.125,381.388,236.125,381.259z M229.104,393.915l-0.206,0.357h-0.415
					C228.627,394.076,228.849,393.943,229.104,393.915z M228.483,395.319h0.415l0.206,0.358
					C228.849,395.649,228.627,395.516,228.483,395.319z M236.125,408.333c0-0.129,0.029-0.25,0.078-0.361l0.208,0.361l-0.208,0.361
					C236.154,408.583,236.125,408.461,236.125,408.333z M237.111,409.213l0.206-0.358h0.415
					C237.588,409.053,237.365,409.186,237.111,409.213z M251.93,408.856h0.415l0.206,0.358
					C252.296,409.186,252.074,409.053,251.93,408.856z M253.536,408.333c0,0.129-0.029,0.25-0.078,0.361l-0.208-0.361l0.208-0.361
					C253.508,408.083,253.536,408.204,253.536,408.333z M260.557,395.676l0.206-0.358h0.415
					C261.035,395.516,260.812,395.649,260.557,395.676z"></path>
				<path style="opacity:0.5;fill:#FFFFFF;" d="M263.392,394.273h-1.068c-0.229-0.814-0.976-1.413-1.862-1.413
					c-0.165,0-0.325,0.023-0.478,0.062l-5.954-10.313c0.341-0.349,0.552-0.826,0.552-1.351c0-0.525-0.211-1.002-0.552-1.351
					l0.536-0.927c0.144-0.25,0.059-0.57-0.191-0.714c-0.25-0.144-0.57-0.059-0.714,0.191l-0.536,0.928
					c-0.153-0.039-0.313-0.062-0.478-0.062c-0.886,0-1.633,0.599-1.862,1.413h-11.907c-0.229-0.814-0.976-1.413-1.862-1.413
					c-0.165,0-0.325,0.023-0.478,0.062l-0.535-0.926c-0.144-0.25-0.464-0.336-0.714-0.192c-0.25,0.145-0.336,0.464-0.191,0.714
					l0.535,0.926c-0.341,0.349-0.552,0.826-0.552,1.351c0,0.525,0.211,1.002,0.552,1.351l-5.954,10.313
					c-0.153-0.039-0.313-0.062-0.478-0.062c-0.886,0-1.633,0.599-1.862,1.413h-1.068c-0.289,0-0.523,0.234-0.523,0.523
					c0,0.289,0.234,0.523,0.523,0.523h1.068c0.229,0.814,0.976,1.413,1.862,1.413c0.165,0,0.325-0.023,0.478-0.062l5.954,10.312
					c-0.341,0.349-0.552,0.826-0.552,1.351c0,0.525,0.211,1.002,0.552,1.351l-0.535,0.926c-0.145,0.25-0.059,0.57,0.191,0.714
					c0.25,0.144,0.57,0.059,0.714-0.191l0.535-0.927c0.153,0.039,0.313,0.062,0.478,0.062c0.886,0,1.633-0.599,1.862-1.413h11.907
					c0.229,0.814,0.976,1.413,1.862,1.413c0.165,0,0.325-0.023,0.478-0.062l0.536,0.928c0.144,0.25,0.464,0.336,0.714,0.191
					c0.25-0.144,0.336-0.464,0.191-0.714l-0.536-0.928c0.341-0.349,0.552-0.826,0.552-1.351c0-0.525-0.211-1.002-0.552-1.351
					l5.954-10.312c0.153,0.039,0.313,0.062,0.478,0.062c0.886,0,1.633-0.599,1.862-1.413h1.068c0.289,0,0.523-0.234,0.523-0.523
					C263.915,394.507,263.681,394.273,263.392,394.273z M261.179,394.273h-0.415l-0.206-0.357
					C260.812,393.943,261.035,394.076,261.179,394.273z M251.93,407.81c0.144-0.197,0.366-0.33,0.622-0.358l-0.206,0.358H251.93z
					 M252.646,406.397c-0.886,0-1.633,0.599-1.862,1.413h-11.907c-0.229-0.814-0.976-1.413-1.862-1.413
					c-0.165,0-0.325,0.023-0.478,0.062l-5.954-10.312c0.341-0.349,0.552-0.826,0.552-1.351c0-0.525-0.211-1.002-0.552-1.351
					l5.954-10.313c0.153,0.039,0.313,0.062,0.478,0.062c0.886,0,1.633-0.599,1.862-1.413h11.907
					c0.229,0.814,0.976,1.413,1.862,1.413c0.165,0,0.325-0.023,0.478-0.062l5.954,10.313c-0.341,0.349-0.552,0.826-0.552,1.351
					c0,0.526,0.211,1.002,0.552,1.351l-5.954,10.312C252.971,406.42,252.812,406.397,252.646,406.397z M237.317,407.81l-0.206-0.358
					c0.255,0.028,0.477,0.161,0.621,0.358H237.317z M229.803,394.796l0.208-0.361c0.049,0.111,0.078,0.232,0.078,0.361
					c0,0.129-0.029,0.25-0.078,0.361L229.803,394.796z M237.732,381.782c-0.144,0.197-0.366,0.33-0.621,0.357l0.206-0.357H237.732z
					 M252.345,381.782l0.206,0.357c-0.255-0.028-0.477-0.16-0.621-0.357H252.345z M259.572,394.796c0-0.129,0.029-0.25,0.078-0.361
					l0.208,0.361l-0.208,0.361C259.601,395.046,259.572,394.924,259.572,394.796z M253.536,381.259c0,0.129-0.029,0.25-0.078,0.361
					l-0.208-0.361l0.208-0.361C253.508,381.009,253.536,381.13,253.536,381.259z M252.551,380.378l-0.206,0.358h-0.415
					C252.074,380.539,252.296,380.406,252.551,380.378z M237.732,380.736h-0.415l-0.206-0.358
					C237.365,380.406,237.588,380.539,237.732,380.736z M236.125,381.259c0-0.129,0.029-0.25,0.078-0.361l0.208,0.361l-0.208,0.361
					C236.154,381.509,236.125,381.388,236.125,381.259z M229.104,393.915l-0.206,0.357h-0.415
					C228.627,394.076,228.849,393.943,229.104,393.915z M228.483,395.319h0.415l0.206,0.358
					C228.849,395.649,228.627,395.516,228.483,395.319z M236.125,408.333c0-0.129,0.029-0.25,0.078-0.361l0.208,0.361l-0.208,0.361
					C236.154,408.583,236.125,408.461,236.125,408.333z M237.111,409.213l0.206-0.358h0.415
					C237.588,409.053,237.365,409.186,237.111,409.213z M251.93,408.856h0.415l0.206,0.358
					C252.296,409.186,252.074,409.053,251.93,408.856z M253.536,408.333c0,0.129-0.029,0.25-0.078,0.361l-0.208-0.361l0.208-0.361
					C253.508,408.083,253.536,408.204,253.536,408.333z M260.557,395.676l0.206-0.358h0.415
					C261.035,395.516,260.812,395.649,260.557,395.676z"></path>
			</g>
		</g>
		<g>
			<g>
				<path style="fill:#263238;" d="M125.883,382.108c-6.863,0-12.426,5.563-12.426,12.426c0,6.863,5.563,12.426,12.426,12.426
					c6.863,0,12.426-5.564,12.426-12.426C138.309,387.672,132.745,382.108,125.883,382.108z M129.808,391.259l0.948-2.827
					c0.348-1.039,1.686-1.359,2.44-0.563c1.072,1.132,1.885,2.512,2.341,4.045c0.315,1.056-0.626,2.063-1.705,1.844l-2.923-0.592
					C130.043,392.99,129.526,392.096,129.808,391.259z M121.958,398.333l-0.948,2.827c-0.349,1.039-1.686,1.359-2.44,0.563
					c-1.072-1.131-1.884-2.512-2.341-4.045c-0.315-1.056,0.626-2.063,1.705-1.844l2.923,0.592
					C121.722,396.602,122.239,397.496,121.958,398.333z M120.857,393.165l-2.923,0.592c-1.079,0.219-2.02-0.788-1.705-1.844
					c0.457-1.533,1.269-2.913,2.341-4.045c0.754-0.796,2.091-0.476,2.44,0.563l0.948,2.827
					C122.239,392.096,121.722,392.99,120.857,393.165z M128.172,404.608c-0.735,0.172-1.502,0.262-2.29,0.262
					c-0.788,0-1.554-0.091-2.29-0.262c-1.091-0.255-1.528-1.568-0.786-2.408l1.975-2.236c0.585-0.662,1.617-0.662,2.202,0
					l1.975,2.236C129.7,403.039,129.264,404.353,128.172,404.608z M128.959,387.392l-1.975,2.236c-0.585,0.662-1.617,0.662-2.202,0
					l-1.975-2.236c-0.742-0.84-0.305-2.154,0.786-2.408c0.736-0.171,1.502-0.262,2.29-0.262c0.788,0,1.554,0.091,2.29,0.262
					C129.264,385.238,129.7,386.552,128.959,387.392z M135.537,397.678c-0.457,1.533-1.269,2.914-2.341,4.045
					c-0.754,0.796-2.091,0.476-2.44-0.563l-0.948-2.827c-0.281-0.837,0.235-1.731,1.101-1.907l2.923-0.592
					C134.911,395.615,135.851,396.622,135.537,397.678z"></path>
				<path style="opacity:0.4;fill:#FFFFFF;" d="M125.883,382.108c-6.863,0-12.426,5.563-12.426,12.426
					c0,6.863,5.563,12.426,12.426,12.426c6.863,0,12.426-5.564,12.426-12.426C138.309,387.672,132.745,382.108,125.883,382.108z
					 M129.808,391.259l0.948-2.827c0.348-1.039,1.686-1.359,2.44-0.563c1.072,1.132,1.885,2.512,2.341,4.045
					c0.315,1.056-0.626,2.063-1.705,1.844l-2.923-0.592C130.043,392.99,129.526,392.096,129.808,391.259z M121.958,398.333
					l-0.948,2.827c-0.349,1.039-1.686,1.359-2.44,0.563c-1.072-1.131-1.884-2.512-2.341-4.045c-0.315-1.056,0.626-2.063,1.705-1.844
					l2.923,0.592C121.722,396.602,122.239,397.496,121.958,398.333z M120.857,393.165l-2.923,0.592
					c-1.079,0.219-2.02-0.788-1.705-1.844c0.457-1.533,1.269-2.913,2.341-4.045c0.754-0.796,2.091-0.476,2.44,0.563l0.948,2.827
					C122.239,392.096,121.722,392.99,120.857,393.165z M128.172,404.608c-0.735,0.172-1.502,0.262-2.29,0.262
					c-0.788,0-1.554-0.091-2.29-0.262c-1.091-0.255-1.528-1.568-0.786-2.408l1.975-2.236c0.585-0.662,1.617-0.662,2.202,0
					l1.975,2.236C129.7,403.039,129.264,404.353,128.172,404.608z M128.959,387.392l-1.975,2.236c-0.585,0.662-1.617,0.662-2.202,0
					l-1.975-2.236c-0.742-0.84-0.305-2.154,0.786-2.408c0.736-0.171,1.502-0.262,2.29-0.262c0.788,0,1.554,0.091,2.29,0.262
					C129.264,385.238,129.7,386.552,128.959,387.392z M135.537,397.678c-0.457,1.533-1.269,2.914-2.341,4.045
					c-0.754,0.796-2.091,0.476-2.44-0.563l-0.948-2.827c-0.281-0.837,0.235-1.731,1.101-1.907l2.923-0.592
					C134.911,395.615,135.851,396.622,135.537,397.678z"></path>
			</g>
			<path style="fill:#263238;" d="M125.883,376.332c-10.198,0-18.464,8.267-18.464,18.464c0,10.198,8.267,18.464,18.464,18.464
				s18.464-8.267,18.464-18.464C144.347,384.598,136.08,376.332,125.883,376.332z M125.883,406.564
				c-6.5,0-11.768-5.269-11.768-11.768c0-6.5,5.269-11.768,11.768-11.768c6.499,0,11.768,5.269,11.768,11.768
				C137.651,401.295,132.382,406.564,125.883,406.564z"></path>
			<g>
				<path style="fill:#407BFF;" d="M144.444,394.273h-1.068c-0.229-0.814-0.976-1.413-1.862-1.413c-0.165,0-0.325,0.023-0.478,0.062
					l-5.954-10.313c0.341-0.349,0.552-0.826,0.552-1.351c0-0.525-0.211-1.002-0.552-1.351l0.536-0.927
					c0.144-0.25,0.059-0.57-0.191-0.714c-0.25-0.144-0.57-0.059-0.714,0.191l-0.536,0.928c-0.153-0.039-0.313-0.062-0.478-0.062
					c-0.886,0-1.633,0.599-1.862,1.413h-11.907c-0.229-0.814-0.976-1.413-1.862-1.413c-0.165,0-0.325,0.023-0.478,0.062
					l-0.535-0.926c-0.144-0.25-0.464-0.336-0.714-0.192c-0.25,0.145-0.336,0.464-0.191,0.714l0.535,0.926
					c-0.341,0.349-0.552,0.826-0.552,1.351c0,0.525,0.211,1.002,0.552,1.351l-5.954,10.313c-0.153-0.039-0.313-0.062-0.478-0.062
					c-0.886,0-1.633,0.599-1.862,1.413h-1.068c-0.289,0-0.523,0.234-0.523,0.523c0,0.289,0.234,0.523,0.523,0.523h1.068
					c0.229,0.814,0.976,1.413,1.862,1.413c0.165,0,0.325-0.023,0.478-0.062l5.954,10.312c-0.341,0.349-0.552,0.826-0.552,1.351
					c0,0.525,0.211,1.002,0.552,1.351l-0.535,0.926c-0.144,0.25-0.059,0.57,0.191,0.714c0.25,0.144,0.57,0.059,0.714-0.191
					l0.535-0.927c0.153,0.039,0.313,0.062,0.478,0.062c0.886,0,1.633-0.599,1.862-1.413h11.907c0.229,0.814,0.976,1.413,1.862,1.413
					c0.165,0,0.325-0.023,0.478-0.062l0.536,0.928c0.144,0.25,0.464,0.336,0.714,0.191c0.25-0.144,0.336-0.464,0.191-0.714
					l-0.536-0.928c0.341-0.349,0.552-0.826,0.552-1.351c0-0.525-0.211-1.002-0.552-1.351l5.954-10.312
					c0.153,0.039,0.313,0.062,0.478,0.062c0.886,0,1.633-0.599,1.862-1.413h1.068c0.289,0,0.523-0.234,0.523-0.523
					C144.967,394.507,144.733,394.273,144.444,394.273z M142.23,394.273h-0.415l-0.206-0.357
					C141.864,393.943,142.086,394.076,142.23,394.273z M132.981,407.81c0.144-0.197,0.367-0.33,0.622-0.358l-0.207,0.358H132.981z
					 M133.698,406.397c-0.886,0-1.633,0.599-1.862,1.413h-11.907c-0.229-0.814-0.976-1.413-1.862-1.413
					c-0.165,0-0.325,0.023-0.478,0.062l-5.954-10.312c0.341-0.349,0.552-0.826,0.552-1.351c0-0.525-0.211-1.002-0.552-1.351
					l5.954-10.313c0.153,0.039,0.313,0.062,0.478,0.062c0.886,0,1.633-0.599,1.862-1.413h11.907
					c0.229,0.814,0.976,1.413,1.862,1.413c0.165,0,0.325-0.023,0.478-0.062l5.954,10.313c-0.341,0.349-0.552,0.826-0.552,1.351
					c0,0.526,0.211,1.002,0.552,1.351l-5.954,10.312C134.023,406.42,133.863,406.397,133.698,406.397z M118.369,407.81l-0.206-0.358
					c0.255,0.028,0.477,0.161,0.622,0.358H118.369z M110.855,394.796l0.208-0.361c0.049,0.111,0.078,0.232,0.078,0.361
					c0,0.129-0.029,0.25-0.078,0.361L110.855,394.796z M118.784,381.782c-0.144,0.197-0.366,0.33-0.621,0.357l0.206-0.357H118.784z
					 M133.396,381.782l0.206,0.357c-0.255-0.028-0.477-0.16-0.621-0.357H133.396z M140.624,394.796c0-0.129,0.029-0.25,0.078-0.361
					l0.208,0.361l-0.208,0.361C140.652,395.046,140.624,394.924,140.624,394.796z M134.588,381.259c0,0.129-0.029,0.25-0.078,0.361
					l-0.208-0.361l0.208-0.361C134.559,381.009,134.588,381.13,134.588,381.259z M133.603,380.378l-0.207,0.358h-0.415
					C133.125,380.539,133.348,380.406,133.603,380.378z M118.784,380.736h-0.415l-0.206-0.358
					C118.417,380.406,118.64,380.539,118.784,380.736z M117.177,381.259c0-0.129,0.029-0.25,0.078-0.361l0.208,0.361l-0.208,0.361
					C117.206,381.509,117.177,381.388,117.177,381.259z M110.156,393.915l-0.206,0.357h-0.415
					C109.679,394.076,109.901,393.943,110.156,393.915z M109.535,395.319h0.415l0.207,0.358
					C109.901,395.649,109.679,395.516,109.535,395.319z M117.177,408.333c0-0.129,0.029-0.25,0.078-0.361l0.208,0.361l-0.208,0.361
					C117.206,408.583,117.177,408.461,117.177,408.333z M118.162,409.213l0.206-0.358h0.415
					C118.64,409.053,118.417,409.186,118.162,409.213z M132.981,408.856h0.415l0.206,0.358
					C133.348,409.186,133.126,409.053,132.981,408.856z M134.588,408.333c0,0.129-0.029,0.25-0.078,0.361l-0.208-0.361l0.208-0.361
					C134.559,408.083,134.588,408.204,134.588,408.333z M141.609,395.676l0.207-0.358h0.415
					C142.087,395.516,141.864,395.649,141.609,395.676z"></path>
				<path style="opacity:0.5;fill:#FFFFFF;" d="M144.444,394.273h-1.068c-0.229-0.814-0.976-1.413-1.862-1.413
					c-0.165,0-0.325,0.023-0.478,0.062l-5.954-10.313c0.341-0.349,0.552-0.826,0.552-1.351c0-0.525-0.211-1.002-0.552-1.351
					l0.536-0.927c0.144-0.25,0.059-0.57-0.191-0.714c-0.25-0.144-0.57-0.059-0.714,0.191l-0.536,0.928
					c-0.153-0.039-0.313-0.062-0.478-0.062c-0.886,0-1.633,0.599-1.862,1.413h-11.907c-0.229-0.814-0.976-1.413-1.862-1.413
					c-0.165,0-0.325,0.023-0.478,0.062l-0.535-0.926c-0.144-0.25-0.464-0.336-0.714-0.192c-0.25,0.145-0.336,0.464-0.191,0.714
					l0.535,0.926c-0.341,0.349-0.552,0.826-0.552,1.351c0,0.525,0.211,1.002,0.552,1.351l-5.954,10.313
					c-0.153-0.039-0.313-0.062-0.478-0.062c-0.886,0-1.633,0.599-1.862,1.413h-1.068c-0.289,0-0.523,0.234-0.523,0.523
					c0,0.289,0.234,0.523,0.523,0.523h1.068c0.229,0.814,0.976,1.413,1.862,1.413c0.165,0,0.325-0.023,0.478-0.062l5.954,10.312
					c-0.341,0.349-0.552,0.826-0.552,1.351c0,0.525,0.211,1.002,0.552,1.351l-0.535,0.926c-0.144,0.25-0.059,0.57,0.191,0.714
					c0.25,0.144,0.57,0.059,0.714-0.191l0.535-0.927c0.153,0.039,0.313,0.062,0.478,0.062c0.886,0,1.633-0.599,1.862-1.413h11.907
					c0.229,0.814,0.976,1.413,1.862,1.413c0.165,0,0.325-0.023,0.478-0.062l0.536,0.928c0.144,0.25,0.464,0.336,0.714,0.191
					c0.25-0.144,0.336-0.464,0.191-0.714l-0.536-0.928c0.341-0.349,0.552-0.826,0.552-1.351c0-0.525-0.211-1.002-0.552-1.351
					l5.954-10.312c0.153,0.039,0.313,0.062,0.478,0.062c0.886,0,1.633-0.599,1.862-1.413h1.068c0.289,0,0.523-0.234,0.523-0.523
					C144.967,394.507,144.733,394.273,144.444,394.273z M142.23,394.273h-0.415l-0.206-0.357
					C141.864,393.943,142.086,394.076,142.23,394.273z M132.981,407.81c0.144-0.197,0.367-0.33,0.622-0.358l-0.207,0.358H132.981z
					 M133.698,406.397c-0.886,0-1.633,0.599-1.862,1.413h-11.907c-0.229-0.814-0.976-1.413-1.862-1.413
					c-0.165,0-0.325,0.023-0.478,0.062l-5.954-10.312c0.341-0.349,0.552-0.826,0.552-1.351c0-0.525-0.211-1.002-0.552-1.351
					l5.954-10.313c0.153,0.039,0.313,0.062,0.478,0.062c0.886,0,1.633-0.599,1.862-1.413h11.907
					c0.229,0.814,0.976,1.413,1.862,1.413c0.165,0,0.325-0.023,0.478-0.062l5.954,10.313c-0.341,0.349-0.552,0.826-0.552,1.351
					c0,0.526,0.211,1.002,0.552,1.351l-5.954,10.312C134.023,406.42,133.863,406.397,133.698,406.397z M118.369,407.81l-0.206-0.358
					c0.255,0.028,0.477,0.161,0.622,0.358H118.369z M110.855,394.796l0.208-0.361c0.049,0.111,0.078,0.232,0.078,0.361
					c0,0.129-0.029,0.25-0.078,0.361L110.855,394.796z M118.784,381.782c-0.144,0.197-0.366,0.33-0.621,0.357l0.206-0.357H118.784z
					 M133.396,381.782l0.206,0.357c-0.255-0.028-0.477-0.16-0.621-0.357H133.396z M140.624,394.796c0-0.129,0.029-0.25,0.078-0.361
					l0.208,0.361l-0.208,0.361C140.652,395.046,140.624,394.924,140.624,394.796z M134.588,381.259c0,0.129-0.029,0.25-0.078,0.361
					l-0.208-0.361l0.208-0.361C134.559,381.009,134.588,381.13,134.588,381.259z M133.603,380.378l-0.207,0.358h-0.415
					C133.125,380.539,133.348,380.406,133.603,380.378z M118.784,380.736h-0.415l-0.206-0.358
					C118.417,380.406,118.64,380.539,118.784,380.736z M117.177,381.259c0-0.129,0.029-0.25,0.078-0.361l0.208,0.361l-0.208,0.361
					C117.206,381.509,117.177,381.388,117.177,381.259z M110.156,393.915l-0.206,0.357h-0.415
					C109.679,394.076,109.901,393.943,110.156,393.915z M109.535,395.319h0.415l0.207,0.358
					C109.901,395.649,109.679,395.516,109.535,395.319z M117.177,408.333c0-0.129,0.029-0.25,0.078-0.361l0.208,0.361l-0.208,0.361
					C117.206,408.583,117.177,408.461,117.177,408.333z M118.162,409.213l0.206-0.358h0.415
					C118.64,409.053,118.417,409.186,118.162,409.213z M132.981,408.856h0.415l0.206,0.358
					C133.348,409.186,133.126,409.053,132.981,408.856z M134.588,408.333c0,0.129-0.029,0.25-0.078,0.361l-0.208-0.361l0.208-0.361
					C134.559,408.083,134.588,408.204,134.588,408.333z M141.609,395.676l0.207-0.358h0.415
					C142.087,395.516,141.864,395.649,141.609,395.676z"></path>
			</g>
		</g>
		<path style="fill:#263238;" d="M128.24,394.796c0,1.302-1.055,2.357-2.357,2.357c-1.302,0-2.357-1.055-2.357-2.357
			c0-1.302,1.055-2.357,2.357-2.357C127.184,392.439,128.24,393.494,128.24,394.796z"></path>
		<path style="fill:#263238;" d="M247.168,394.796c0,1.302-1.055,2.357-2.357,2.357c-1.302,0-2.357-1.055-2.357-2.357
			c0-1.302,1.055-2.357,2.357-2.357C246.113,392.439,247.168,393.494,247.168,394.796z"></path>
		<path style="fill:#407BFF;" d="M168.008,364.711h-9.926c-0.502,0-0.908-0.407-0.908-0.908l0,0c0-0.502,0.407-0.908,0.908-0.908
			h9.926c0.502,0,0.908,0.407,0.908,0.908l0,0C168.916,364.305,168.51,364.711,168.008,364.711z"></path>
		<path style="opacity:0.4;" d="M168.008,364.711h-9.926c-0.502,0-0.908-0.407-0.908-0.908l0,0c0-0.502,0.407-0.908,0.908-0.908
			h9.926c0.502,0,0.908,0.407,0.908,0.908l0,0C168.916,364.305,168.51,364.711,168.008,364.711z"></path>
	</g>
</g>
<g id="SvgjsG1001">
	<g>
		<circle style="fill:#407BFF;" cx="281.379" cy="116.834" r="19.489"></circle>
		<circle style="opacity:0.8;fill:#FFFFFF;" cx="281.379" cy="116.834" r="19.489"></circle>
	</g>
</g>
<g id="SvgjsG1000">
	<g>
		<path style="fill:#407BFF;" d="M52.348,411.948H242.61c0,0-12.258-11.305-17.421-8.372c-5.163,2.933-5.575,0.056-12.319-0.486
			c-6.744-0.542-8.43,4.964-11.241,4.429c-2.81-0.535-6.182-4.947-12.646-4.466c-6.463,0.481-7.841,4.927-11.087,4.429
			c-3.245-0.498-4.931-3.863-9.709-3.906c-4.777-0.043-5.058,3.911-8.992,3.906s-5.51-2.994-9.64-2.485s-7.293,4.97-11.155,2.485
			c-3.862-2.485-8.474-4.965-13.37-2.485c-4.896,2.48-11.078-2.364-14.45-1.421s-8.774,2.391-12.536,1.421
			c-3.763-0.97-8.482-2.48-13.569,0c-5.087,2.48-13.358-1.114-17.458-1.981c-4.1-0.867-5.038,1.472-7.855,1.981
			S53.692,404.59,52.348,411.948z"></path>
		<path style="opacity:0.8;fill:#FFFFFF;" d="M52.348,411.948H242.61c0,0-12.258-11.305-17.421-8.372
			c-5.163,2.933-5.575,0.056-12.319-0.486c-6.744-0.542-8.43,4.964-11.241,4.429c-2.81-0.535-6.182-4.947-12.646-4.466
			c-6.463,0.481-7.841,4.927-11.087,4.429c-3.245-0.498-4.931-3.863-9.709-3.906c-4.777-0.043-5.058,3.911-8.992,3.906
			s-5.51-2.994-9.64-2.485s-7.293,4.97-11.155,2.485c-3.862-2.485-8.474-4.965-13.37-2.485c-4.896,2.48-11.078-2.364-14.45-1.421
			s-8.774,2.391-12.536,1.421c-3.763-0.97-8.482-2.48-13.569,0c-5.087,2.48-13.358-1.114-17.458-1.981
			c-4.1-0.867-5.038,1.472-7.855,1.981S53.692,404.59,52.348,411.948z"></path>
	</g>
	<g>
		<path style="fill:#407BFF;" d="M248.485,411.948h190.262c0,0-12.258-11.305-17.421-8.372c-5.163,2.933-5.575,0.056-12.319-0.486
			c-6.744-0.542-8.43,4.964-11.241,4.429c-2.81-0.535-6.182-4.947-12.646-4.466c-6.463,0.481-7.841,4.927-11.086,4.429
			c-3.245-0.498-4.931-3.863-9.709-3.906c-4.777-0.043-5.058,3.911-8.992,3.906c-3.934-0.005-5.51-2.994-9.64-2.485
			c-4.13,0.508-7.293,4.97-11.155,2.485c-3.862-2.485-8.474-4.965-13.37-2.485c-4.896,2.48-11.078-2.364-14.45-1.421
			c-3.372,0.943-8.774,2.391-12.536,1.421c-3.763-0.97-8.482-2.48-13.569,0c-5.087,2.48-13.358-1.114-17.458-1.981
			c-4.1-0.867-5.038,1.472-7.855,1.981C252.48,405.505,249.829,404.59,248.485,411.948z"></path>
		<path style="opacity:0.8;fill:#FFFFFF;" d="M248.485,411.948h190.262c0,0-12.258-11.305-17.421-8.372
			c-5.163,2.933-5.575,0.056-12.319-0.486c-6.744-0.542-8.43,4.964-11.241,4.429c-2.81-0.535-6.182-4.947-12.646-4.466
			c-6.463,0.481-7.841,4.927-11.086,4.429c-3.245-0.498-4.931-3.863-9.709-3.906c-4.777-0.043-5.058,3.911-8.992,3.906
			c-3.934-0.005-5.51-2.994-9.64-2.485c-4.13,0.508-7.293,4.97-11.155,2.485c-3.862-2.485-8.474-4.965-13.37-2.485
			c-4.896,2.48-11.078-2.364-14.45-1.421c-3.372,0.943-8.774,2.391-12.536,1.421c-3.763-0.97-8.482-2.48-13.569,0
			c-5.087,2.48-13.358-1.114-17.458-1.981c-4.1-0.867-5.038,1.472-7.855,1.981C252.48,405.505,249.829,404.59,248.485,411.948z"></path>
	</g>
	<g>
		<path style="fill:#407BFF;" d="M259.04,412.78c0,0,0.067-0.156,0.178-0.445c3.357-1,6.402-2.712,8.97-4.98
			c-0.711,1.323-1.245,2.212-1.245,2.212s13.15-14.762,16.552-12.328c3.324,2.368-7.892,11.794-8.515,12.316
			c0.456-0.267,10.493-5.892,11.683-1.856C287.886,411.846,268.422,412.78,259.04,412.78z"></path>
		<path style="opacity:0.8;fill:#FFFFFF;" d="M259.04,412.78c0,0,0.067-0.156,0.178-0.445c3.357-1,6.402-2.712,8.97-4.98
			c-0.711,1.323-1.245,2.212-1.245,2.212s13.15-14.762,16.552-12.328c3.324,2.368-7.892,11.794-8.515,12.316
			c0.456-0.267,10.493-5.892,11.683-1.856C287.886,411.846,268.422,412.78,259.04,412.78z"></path>
	</g>
	<g>
		<path style="fill:#407BFF;" d="M411.506,417.446c0,0-122.897,3.162-161.827,3.208c-41.866,0.05-161.185-3.208-161.185-3.208
			s5.787-15.147,14.988-11.217c9.201,3.93,9.935,0.076,21.955-0.651c12.019-0.727,15.024,6.651,20.032,5.934
			c5.008-0.717,11.018-6.629,22.536-5.985c11.519,0.645,13.975,6.602,19.758,5.935c5.783-0.667,8.788-5.176,17.302-5.233
			c8.514-0.057,9.014,5.24,16.026,5.233c7.011-0.007,9.82-4.011,17.18-3.33c7.36,0.681,12.998,6.66,19.88,3.33
			c6.882-3.33,15.102-6.653,23.828-3.33c8.725,3.323,19.743-3.167,25.752-1.903c6.01,1.264,15.636,3.203,22.341,1.903
			c6.706-1.3,15.116-3.323,24.182,0c9.066,3.323,23.807-1.492,31.113-2.654c7.307-1.162,8.978,1.973,13.998,2.654
			C404.386,408.813,409.111,407.587,411.506,417.446z"></path>
		<path style="opacity:0.9;fill:#FFFFFF;" d="M411.506,417.446c0,0-122.897,3.162-161.827,3.208
			c-41.866,0.05-161.185-3.208-161.185-3.208s5.787-15.147,14.988-11.217c9.201,3.93,9.935,0.076,21.955-0.651
			c12.019-0.727,15.024,6.651,20.032,5.934c5.008-0.717,11.018-6.629,22.536-5.985c11.519,0.645,13.975,6.602,19.758,5.935
			c5.783-0.667,8.788-5.176,17.302-5.233c8.514-0.057,9.014,5.24,16.026,5.233c7.011-0.007,9.82-4.011,17.18-3.33
			c7.36,0.681,12.998,6.66,19.88,3.33c6.882-3.33,15.102-6.653,23.828-3.33c8.725,3.323,19.743-3.167,25.752-1.903
			c6.01,1.264,15.636,3.203,22.341,1.903c6.706-1.3,15.116-3.323,24.182,0c9.066,3.323,23.807-1.492,31.113-2.654
			c7.307-1.162,8.978,1.973,13.998,2.654C404.386,408.813,409.111,407.587,411.506,417.446z"></path>
	</g>
</g>
</svg><style>@media (prefers-color-scheme: light) { :root { filter: none; } }
</style></svg>